<?xml version="1.0" encoding="utf-8"?>
<!-- Generator: Adobe Illustrator 15.0.0, SVG Export Plug-In . SVG Version: 6.00 Build 0)  -->
<!DOCTYPE svg PUBLIC "-//W3C//DTD SVG 1.1//EN" "http://www.w3.org/Graphics/SVG/1.1/DTD/svg11.dtd">
<svg version="1.1" id="Layer_1" xmlns="http://www.w3.org/2000/svg" xmlns:xlink="http://www.w3.org/1999/xlink" x="0px" y="0px"
	 width="520px" height="426px" viewBox="0 0 520 426" enable-background="new 0 0 520 426" xml:space="preserve">
<g>
	<path fill="#86BB2D" d="M252.283,26.284c17.891-6.072,37.119,13.859,30.152,31.476c-4.957,18.524-32.605,22.711-43.053,6.811
		C228.852,51.603,236.689,30.829,252.283,26.284"/>
	<path fill="#DD214B" d="M444.928,307.938c4.307,0.411,10.43-1.609,12.85,3.226c7.939,14.442,11.063,32.778,20,45.712
		c6.191-14.889,10.754-30.481,17.238-45.268c2.264-5.334,9.092-3.242,13.635-3.723c-10.926,25.886-21.234,52.025-32.076,77.946
		c-4.541,10.563-17.307,15.024-27.854,11.165c2.332-6.725,9.758-7.205,15.109-10.309c4.631-5.388,10.02-13.432,5.818-20.518
		C461.293,346.825,452.408,327.647,444.928,307.938 M151.92,307.974c16.709-4.736,21.287,13.739,29.213,23.826
		c8.455-9.777,12.332-28.801,29.348-23.826c-6.672,10.514-14.734,20.189-20.549,31.199c4.768,12.162,14.377,22.06,20.482,33.672
		c-17.189,4.632-20.723-15.146-29.281-24.976c-8.045,10.188-12.197,29.607-29.264,24.925c6.537-11.392,15.729-21.511,20.584-33.656
		C166.859,328.026,158.574,318.47,151.92,307.974 M109.652,317.511c-13.857,4.666-20.018,22.797-12.555,35.215
		c6.039,11.578,22.691,15.026,33.139,7.463c12.729-8.765,13.037-30.378,0.447-39.385
		C124.781,316.189,116.668,315.896,109.652,317.511 M106.188,308.728c16.518-5.061,36.727,2.59,42.9,19.418
		c7.6,17.033-3.035,38.682-20.822,43.724c-16.932,6.003-38.08-3.003-43.691-20.48C78.365,334.251,88.35,313.461,106.188,308.728
		 M415.084,322.159c5.127-8.32,12.502-16.072,23.121-15.712c0.088,3.74,0.104,7.462,0.066,11.2
		c-7.891-0.395-15.83,3.139-19.5,10.396c-7.154,13.345-2.643,29.039-4.305,43.447c-3.484,0-6.949,0-10.398,0
		c-0.566-21.269-0.324-42.558-0.139-63.826C413.385,305.623,415.357,314.938,415.084,322.159 M370.33,322.142
		c5.184-8.234,12.557-16.04,23.123-15.66c0.137,3.395,0.24,6.775,0.342,10.172c-7.738,0.893-15.953,3.929-19.59,11.373
		c-6.965,13.397-2.486,29.022-4.324,43.396c-3.48,0-6.963,0-10.428,0c-0.857-21.218-0.43-42.504-0.223-63.739
		c3.205,0.41,6.432,0.858,9.656,1.336C369.42,313.377,369.883,317.768,370.33,322.142 M302.061,332.554
		c11.785,0,23.586,0.256,35.369-0.088c-0.189-6.277-2.506-12.914-8.301-16.105C317.465,310.804,301.922,319.054,302.061,332.554
		 M299.316,314.834c10.791-10.343,30.086-12.145,41.205-1.39c7.184,6.998,8.471,17.497,8.488,27.051
		c-15.986,0.703-32.008-0.138-47.994,0.479c0.311,12.745,11.289,23.638,24.236,22.573c7.877,0.479,18.527-10.806,22.525,0.738
		c-13.004,10.119-32.592,12.23-45.887,1.51C286.316,353.857,285.697,328.454,299.316,314.834 M241.748,317.545
		c-19.744,7.134-17.992,42.969,3.449,46.518c13.414,2.625,26.537-9.827,25.301-23.311
		C271.99,325.674,256.297,312.553,241.748,317.545 M217.443,282.448c3.621,0.755,9.932-0.034,10.137,5.182
		c1.322,9.69,0.158,19.537,0.465,29.297c10.463-9.383,26.363-13.329,38.883-5.488c19.145,11.698,19.984,43.791,1.445,56.451
		c-14.016,10.188-36.881,6.965-45.938-8.372c-5.9-9.124-5.369-20.377-5.35-30.771C217.322,313.308,216.674,297.87,217.443,282.448
		 M34.127,317.493c-19.984,6.757-18.951,41.887,2.164,46.4c14.391,3.431,27.941-10.602,26.123-24.787
		C62.807,324.767,48.072,312.844,34.127,317.493 M9.633,282.382c3.74,0.463,9.332,0.494,10.018,5.332
		c1.389,9.691,0.137,19.521,0.67,29.279c10.684-10.533,28.693-13.498,40.943-3.895c15.73,12.18,16.725,38.767,2.092,52.18
		c-13.463,13.09-38.73,10.635-48.834-5.418c-6.639-10.258-5.232-22.953-5.352-34.563C9.426,310.991,8.656,296.667,9.633,282.382
		 M250.361,197.421c13.313-5.455,29.898,3.191,32.764,17.343c5.869,20-19.607,38.251-36.742,26.347
		C229.074,231.778,231.695,203.477,250.361,197.421 M294.805,154.229c13.758-4.527,29.35,5.814,30.941,20.07
		c2.301,13.568-8.916,27.684-22.795,27.891c-11.422,0.805-22.484-7.583-24.854-18.766
		C274.461,171.28,282.832,157.592,294.805,154.229 M209.141,154.419c13.414-4.736,28.818,4.629,31.477,18.404
		c3.414,14.256-8.799,29.487-23.414,29.401c-12.643,0.737-24.201-10.189-24.768-22.694
		C191.439,168.673,198.697,157.626,209.141,154.419 M337.738,111.621c14.102-4.288,30.104,6.757,30.824,21.511
		c1.629,13.808-10.668,26.878-24.477,26.467c-12.504,0.308-23.963-10.395-24.289-22.951
		C318.77,125.378,326.932,114.469,337.738,111.621 M252.043,111.723c12.436-4.046,26.793,3.673,30.549,16.09
		c4.477,12.386-3.619,27.189-16.191,30.637c-12.504,4.288-27.342-3.671-30.809-16.382
		C231.371,129.649,239.725,115.327,252.043,111.723 M167.906,111.621c13.877-4.186,29.98,6.931,30.566,21.511
		c1.492,12.488-8.285,24.718-20.723,26.227c-12.951,2.196-26.553-7.822-27.873-20.961
		C148.027,126.595,156.275,114.314,167.906,111.621 M296.572,68.601c14.271-3.602,29.742,8.646,29.365,23.396
		c0.994,13.467-11.252,25.73-24.598,25.302c-11.938,0-22.918-9.863-23.877-21.819C275.404,83.283,284.768,71.122,296.572,68.601
		 M210.889,68.755c19.078-5.627,37.295,17.206,27.877,34.649c-7.344,16.741-33.191,18.457-42.557,2.694
		C187.029,92.786,194.869,72.083,210.889,68.755"/>
</g>
</svg>
