<?xml version="1.0" encoding="utf-8"?>
<!-- Generator: Adobe Illustrator 15.0.0, SVG Export Plug-In . SVG Version: 6.00 Build 0)  -->
<!DOCTYPE svg PUBLIC "-//W3C//DTD SVG 1.1//EN" "http://www.w3.org/Graphics/SVG/1.1/DTD/svg11.dtd">
<svg version="1.1" id="Layer_1" xmlns="http://www.w3.org/2000/svg" xmlns:xlink="http://www.w3.org/1999/xlink" x="0px" y="0px"
	 width="432px" height="233px" viewBox="0 0 432 233" enable-background="new 0 0 432 233" xml:space="preserve">
<path fill="#57A52C" d="M16.02,86.92c2.91,6.75,8.04,12.4,10.74,19.15c-3.92,11.04-5.68,22.66-8.5,34.01
	c3.07-3.95,5.75-8.21,9.25-11.82c-0.39,6.49-2.46,12.71-3.51,19.101c4.37-5.13,7.88-10.95,12.61-15.78
	c11.15-12.16,26.08-20.08,41.48-25.53c4.98-1.859,10.31-2.93,14.91-5.72c-8.16-1.08-16.36,0.27-24.53-0.29
	c5.92-3.63,13.02-4.44,19.18-7.57C63.93,89.6,39.16,94.84,16.02,86.92 M42.39,69.58c17.61-3.55,36.8,4.43,46.26,19.78
	c8.27,12.831,9.19,30.01,2.31,43.64c-6.3,12.99-19.26,22.51-33.61,24.39c-15.88,2.49-32.65-4.72-42.11-17.63
	c-9.71-12.92-11.43-31.29-4.28-45.78C16.87,81.53,28.83,72.14,42.39,69.58"/>
<path fill="#1F1A17" d="M260.93,140.97c2.71-4.41,8.36-5.01,13.051-5.06c13.569,0.06,27.14,0.52,40.71,0.59
	c-2.15,5.23-3.521,10.84-6.5,15.69c-2.78,4.399-8.46,5.04-13.21,5.06c-13.54,0.01-27.091,0.06-40.641-0.04
	C256.36,151.74,257.86,145.97,260.93,140.97 M275.04,108.03c3.13-4.391,9.1-4.46,13.97-4.55c13.09,0.21,26.2,0.43,39.29,0.68
	c-2.01,5.28-3.43,10.89-6.45,15.72c-2.72,4.23-8.18,4.91-12.79,4.96c-13.689,0.05-27.39,0.01-41.09,0
	C270.21,119.21,271.64,113.13,275.04,108.03 M354.92,68.99c8.08,0.03,16.15-0.01,24.23,0.03c-4.44,11.52-9.69,22.73-13.67,34.42
	c12.92-6.63,17.359-22.69,28.85-31.161c9.27-5.61,20.59-2.5,30.82-3.24c-13.07,15.27-24.681,32.88-43.091,42.24
	c2.41,2.83,6.011,4.76,7.101,8.569c4.46,12.03,5.479,24.98,7.66,37.551c-7.471,0.029-17.33,3.229-22.88-3.37
	c-4.65-9.37-2.49-20.91-8.011-30.021c-1.63-2.8-5.08-3.1-7.939-3.6c-5.11,12.16-10.17,24.34-15.19,36.54
	c-8.319,0.109-16.649,0.109-24.979,0.109C330.07,127.65,342.69,98.4,354.92,68.99 M288.78,73.79c2.56-4.07,7.76-4.84,12.18-4.81
	c13.79,0.05,27.58-0.02,41.37,0.05c-2.16,5.52-3.53,11.46-6.811,16.46c-2.949,4.41-8.77,4.66-13.539,4.73
	c-13.32-0.02-26.641,0.04-39.95-0.05C284.19,84.69,285.63,78.83,288.78,73.79 M213.81,68.97c14.1,0.19,28.74-1,42.19,4.11
	c5.91,2.18,11.21,6.91,12.4,13.31c2.239,11.12-1.561,22.27-5.301,32.62c-5.479,15.26-16.88,29.12-32.54,34.54
	c-17.28,6.5-35.99,4.431-53.99,3.521c3.43-7.11,4.92-18.551,14.45-19.65c11.6-0.15,24.13,2.26,34.81-3.62
	c7.51-5.55,12.1-14.13,15.58-22.6c2.08-5.8,4.13-12.45,1.78-18.46c-2.65-4.15-8.181-4.42-12.48-5.59
	c-4.53,10.91-9.17,21.76-14.12,32.48c-1.98,4.34-5.32,8.58-10.23,9.58c-5.92,1.12-11.94-0.08-17.89-0.32
	C196.8,108.87,205.27,88.9,213.81,68.97 M148.93,77.87c16.21-8.47,35.14-9.63,53.08-8.54c-2.01,5.15-3.23,10.73-6.31,15.37
	c-3.82,4.75-10.57,3.24-15.87,4.26c-7.34,1.37-16.05,1.39-21.29,7.56c-7.13,8.13-11.97,18.25-14.27,28.79
	c-0.92,4.381-0.94,10.58,4.03,12.5c7.63,2.601,15.88,2.421,23.81,3.36c-2.1,7.74-7.48,15.63-16.1,16.53
	c-9.63,0.58-20.1,0.76-28.83-3.92c-8.62-5.21-9.11-16.7-7.64-25.59C123.17,108.91,131.01,88.11,148.93,77.87"/>
</svg>
