<?xml version="1.0" encoding="utf-8"?>
<!-- Generator: Adobe Illustrator 15.0.0, SVG Export Plug-In . SVG Version: 6.00 Build 0)  -->
<!DOCTYPE svg PUBLIC "-//W3C//DTD SVG 1.1//EN" "http://www.w3.org/Graphics/SVG/1.1/DTD/svg11.dtd">
<svg version="1.1" id="Layer_1" xmlns="http://www.w3.org/2000/svg" xmlns:xlink="http://www.w3.org/1999/xlink" x="0px" y="0px"
	 width="775px" height="559px" viewBox="0 0 775 559" enable-background="new 0 0 775 559" xml:space="preserve">
<g>
	<g id="_x23_e11642ff">
		<path fill="#E21742" d="M142.313,99.65c4.043-2.438,9.001-2.384,13.03,0.04c42.619,23.249,85.291,46.413,127.883,69.702
			c2.178,1.015-0.701,2.919-1.78,3.479c-29.537,17.042-58.962,34.276-88.442,51.414c-4.742,2.109-3.481,7.891-3.439,12.084
			c-0.206,7.094,8.027,8.738,12.808,11.834c30.318-16.686,59.784-34.92,89.963-51.879c0.271,48.51,0.039,97.031,0.124,145.554
			c0.562,5.099-2.37,9.658-6.823,11.948c-43.371,25.576-86.756,51.138-130.115,76.743c-4.013,2.685-9.26,2.769-13.297,0.097
			c-43.691-25.783-87.42-51.482-131.078-77.277c-5.317-2.687-6.62-8.865-6.317-14.317c0.222-47.563-0.246-95.154,0.222-142.718
			c43.849,24.919,87.358,50.481,130.841,76.045c0.219,37.741-0.316,75.511,0.273,113.224c4.658,10.289,22.314,9.904,25.371-1.3
			c0.314-40.688,0.082-81.417,0.136-122.101c0.523-3.618-1.984-6.235-4.985-7.7c-47.151-27.275-94.152-54.81-141.28-82.112
			c-2.055-0.603-2.273-3.178-0.01-3.658C57.737,145.79,99.999,122.666,142.313,99.65z"/>
	</g>
	<g id="_x23_383838ff">
		<path fill="#383938" d="M468.902,170.517c10.895-0.082,21.781-0.042,32.688-0.027c0.012,57.948,0.111,115.895-0.055,173.842
			c-19.289,4.398-39.205,6.305-58.99,5.137c-19.629-1.449-40.139-9.848-50.893-27.136c-16.082-26.771-12.244-66.472,13.031-86.402
			c17.916-13.89,42.918-16.192,64.207-9.74C468.852,207.628,468.809,189.065,468.902,170.517 M422.383,263.192
			c-11.66,16.041-8.904,43.166,9.176,53.453c11.289,6.411,24.854,5.508,37.264,3.863c0.109-21.66-0.055-43.33,0.084-64.988
			C453.82,249.548,433.34,249.507,422.383,263.192z"/>
		<path fill="#383938" d="M737.162,170.6c10.918-0.206,21.85-0.138,32.783-0.07c0.016,57.921,0.109,115.844-0.055,173.762
			c-19.305,4.438-39.264,6.357-59.057,5.165c-19.607-1.452-40.016-9.864-50.814-27.07c-16.119-26.809-12.271-66.604,13.1-86.523
			c17.904-13.851,42.811-16.043,64.072-9.74C737.162,207.614,737.217,189.107,737.162,170.6 M690.805,263.096
			c-11.727,16.042-9.014,43.331,9.193,53.578c11.287,6.345,24.893,5.659,37.248,3.658c-0.18-21.673,0.027-43.329-0.084-65.003
			C722.037,249.739,701.805,249.478,690.805,263.096z"/>
		<path fill="#383938" d="M520.25,232.614c20.467-7.547,42.604-11.344,64.4-9.164c18.807,2,37.838,11.384,47.4,28.303
			c13.244,24.987,10.52,59.469-9.303,80.291c-13.492,13.643-33.48,18.11-52.084,17.85c-0.041-9.494-0.057-18.986,0-28.48
			c12.232-0.547,25.631-5.137,31.563-16.699c7.07-14.289,6.59-34.617-6.619-45.263c-12.023-9.233-28.672-8.288-42.52-4.288
			c-0.096,47.029,0.053,94.046-0.07,141.062c-10.975-0.014-21.932,0.054-32.891-0.014
			C519.977,341.687,519.73,287.138,520.25,232.614z"/>
	</g>
</g>
</svg>
