<svg width="512" height="512" xmlns="http://www.w3.org/2000/svg">

 <g>
  <title>background</title>
  <rect fill="none" id="canvas_background" height="402" width="582" y="-1" x="-1"/>
 </g>
 <g>
  <title>Layer 1</title>
  <g stroke="null" id="svg_22">
   <path stroke="null" id="svg_1" fill="#ffdc75" d="m1.419108,238.44531l71.859375,-104c1.493178,-2.15625 3.945409,-3.44531 6.565282,-3.44531l87.828125,0c4.409341,0 7.984375,3.58203 7.984375,8l0,120l327.359374,0c4.409341,0 7.984375,3.58203 7.984375,8l0,72c0,4.41797 -3.575034,8 -7.984375,8l-495.031248,0c-4.409341,0 -7.984375,-3.58203 -7.984375,-8l0,-96c0,-1.62891 0.495121,-3.21484 1.419093,-4.55469zm0,0"/>
   <path stroke="null" id="svg_2" fill="#ffc519" d="m511.000013,315l0,24c0,4.41797 -3.575034,8 -7.984375,8l-495.031248,0c-4.409341,0 -7.984375,-3.58203 -7.984375,-8l0,-24l510.999998,0zm0,0"/>
   <path stroke="null" id="svg_3" fill="#badad9" d="m33.075907,238.88281l47.90625,-80c1.442497,-2.40625 4.042878,-3.88281 6.845983,-3.88281l39.921875,0c4.409341,0 7.984375,3.58203 7.984375,8l0,80c0,4.41797 -3.575034,8 -7.984375,8l-87.828125,0c-6.081848,0 -9.984371,-6.875 -6.845983,-12.11719zm0,0"/>
   <path stroke="null" id="svg_4" fill="#ffa75c" d="m111.781265,275l15.96875,0c4.409341,0 7.984375,-3.58203 7.984375,-8s-3.575034,-8 -7.984375,-8l-15.96875,0c-4.409341,0 -7.984375,3.58203 -7.984375,8s3.575034,8 7.984375,8zm0,0"/>
   <path stroke="null" id="svg_5" fill="#fff3d1" d="m0.000015,331l510.999998,0l0,24c0,4.41797 -3.575034,8 -7.984375,8l-495.031248,0c-4.409341,0 -7.984375,-3.58203 -7.984375,-8l0,-24zm0,0"/>
   <path stroke="null" id="svg_6" fill="#d8e263" d="m166.673843,71l335.343749,0c4.409341,0 7.984375,3.58203 7.984375,8l0,192c0,4.41797 -3.575034,8 -7.984375,8l-335.343749,0c-4.409341,0 -7.984375,-3.58203 -7.984375,-8l0,-192c0,-4.41797 3.575034,-8 7.984375,-8zm0,0"/>
   <path stroke="null" id="svg_7" fill="#c8d620" d="m463.093763,259c4.409341,0 7.984375,-3.58203 7.984375,-8l0,-184l31.9375,0c4.409341,0 7.984375,3.58203 7.984375,8l0,192c0,4.41797 -3.575034,8 -7.984375,8l-335.343749,0c-4.409341,0 -7.984375,-3.58203 -7.984375,-8l0,-8l303.406249,0zm0,0"/>
   <path stroke="null" id="svg_8" fill="#8b7e7f" d="m79.843765,299c30.818599,0 55.890625,25.12109 55.890625,56s-25.072025,56 -55.890625,56s-55.890625,-25.12109 -55.890625,-56s25.072025,-56 55.890625,-56zm0,0"/>
   <path stroke="null" id="svg_9" fill="#f0efef" d="m79.843765,323c17.610068,0 31.9375,14.35547 31.9375,32s-14.327432,32 -31.9375,32s-31.9375,-14.35547 -31.9375,-32s14.327432,-32 31.9375,-32zm0,0"/>
   <path stroke="null" id="svg_10" fill="#d3cecf" d="m63.875015,379c17.610068,0 31.9375,-14.35547 31.9375,-32c0,-9.26953 -3.960999,-17.62891 -10.268964,-23.48047c14.90052,2.70313 26.237714,15.78516 26.237714,31.48047c0,17.64453 -14.327432,32 -31.9375,32c-8.358643,0 -15.972652,-3.23828 -21.668536,-8.51953c1.851846,0.33594 3.754373,0.51953 5.699786,0.51953zm0,0"/>
   <path stroke="null" id="svg_11" fill="#8b7e7f" d="m415.187513,299c30.818599,0 55.890625,25.12109 55.890625,56s-25.072025,56 -55.890625,56s-55.890625,-25.12109 -55.890625,-56s25.072025,-56 55.890625,-56zm0,0"/>
   <path stroke="null" id="svg_12" fill="#f0efef" d="m415.187513,323c17.610068,0 31.9375,14.35547 31.9375,32s-14.327432,32 -31.9375,32s-31.9375,-14.35547 -31.9375,-32s14.327432,-32 31.9375,-32zm0,0"/>
   <path stroke="null" id="svg_13" fill="#d3cecf" d="m399.218763,379c17.610068,0 31.9375,-14.35547 31.9375,-32c0,-9.26953 -3.960999,-17.62891 -10.268964,-23.48047c14.90052,2.70313 26.237714,15.78516 26.237714,31.48047c0,17.64453 -14.327432,32 -31.9375,32c-8.358643,0 -15.972652,-3.23828 -21.668536,-8.51953c1.851846,0.33594 3.754373,0.51953 5.699786,0.51953zm0,0"/>
   <g stroke="null" id="svg_14" fill="#f4f7d2">
    <path stroke="null" id="svg_15" d="m407.203138,123l47.90625,0c4.409341,0 7.984375,-3.58203 7.984375,-8s-3.575034,-8 -7.984375,-8l-47.90625,0c-4.409341,0 -7.984375,3.58203 -7.984375,8s3.575034,8 7.984375,8zm0,0"/>
    <path stroke="null" id="svg_16" d="m423.171888,147l31.9375,0c4.409341,0 7.984375,-3.58203 7.984375,-8s-3.575034,-8 -7.984375,-8l-31.9375,0c-4.409341,0 -7.984375,3.58203 -7.984375,8s3.575034,8 7.984375,8zm0,0"/>
    <path stroke="null" id="svg_17" d="m431.156263,171l23.953125,0c4.409341,0 7.984375,-3.58203 7.984375,-8s-3.575034,-8 -7.984375,-8l-23.953125,0c-4.409341,0 -7.984375,3.58203 -7.984375,8s3.575034,8 7.984375,8zm0,0"/>
   </g>
   <path stroke="null" id="svg_18" fill="#f0efef" d="m271.468764,171c0,35.34766 28.596378,64 63.875,64s63.875,-28.65234 63.875,-64s-28.596378,-64 -63.875,-64s-63.875,28.65234 -63.875,64zm0,0"/>
   <path stroke="null" id="svg_19" fill="#d3cecf" d="m311.390639,219c35.278621,0 63.875,-28.65234 63.875,-64c0,-17.00391 -6.631552,-32.44531 -17.422934,-43.90625c24.171448,9.12109 41.376059,32.49609 41.376059,59.90625c0,35.34766 -28.596378,64 -63.875,64c-18.307922,0 -34.802982,-7.73047 -46.452066,-20.09375c7.001928,2.64063 14.576944,4.09375 22.498941,4.09375zm0,0"/>
   <path stroke="null" id="svg_20" fill="#ffa75c" d="m335.351559,179c1.524367,0 3.060421,-0.4375 4.421038,-1.34375l23.953125,-16c3.668601,-2.44922 4.662745,-7.41797 2.214416,-11.09375c-2.444436,-3.67578 -7.399579,-4.67187 -11.072082,-2.21875l-17.668553,11.80078l-19.42292,-25.94531c-2.64717,-3.53516 -7.649101,-4.25 -11.177346,-1.60156c-3.528255,2.65234 -4.241699,7.66797 -1.598432,11.20312l23.953125,32c1.563341,2.08594 3.960999,3.19922 6.39763,3.19922zm0,0"/>
   <path stroke="null" id="svg_21" fill="#74b6b2" d="m335.343764,99c39.621682,0 71.859375,32.30078 71.859375,72s-32.237692,72 -71.859375,72s-71.859375,-32.30078 -71.859375,-72s32.237692,-72 71.859375,-72zm-7.984375,127.41797l0,-7.41797c0,-4.41797 3.575034,-8 7.984375,-8s7.984375,3.58203 7.984375,8l0,7.41797c24.440451,-3.51953 43.812701,-22.92969 47.325357,-47.41797l-7.403482,0c-4.409341,0 -7.984375,-3.58203 -7.984375,-8s3.575034,-8 7.984375,-8l7.403482,0c-3.512656,-24.48828 -22.884905,-43.89844 -47.325357,-47.41797l0,7.41797c0,4.41797 -3.575034,8 -7.984375,8s-7.984375,-3.58203 -7.984375,-8l0,-7.41797c-24.440451,3.51953 -43.812701,22.92969 -47.325357,47.41797l7.403482,0c4.409341,0 7.984375,3.58203 7.984375,8s-3.575034,8 -7.984375,8l-7.403482,0c3.512656,24.48828 22.884905,43.89844 47.325357,47.41797zm0,0"/>
  </g>
 </g>
</svg>