<?xml version="1.0" encoding="utf-8"?>
<!-- Generator: Adobe Illustrator 15.0.0, SVG Export Plug-In . SVG Version: 6.00 Build 0)  -->
<!DOCTYPE svg PUBLIC "-//W3C//DTD SVG 1.1//EN" "http://www.w3.org/Graphics/SVG/1.1/DTD/svg11.dtd">
<svg version="1.1" id="Layer_1" xmlns="http://www.w3.org/2000/svg" xmlns:xlink="http://www.w3.org/1999/xlink" x="0px" y="0px"
	 width="549px" height="517px" viewBox="0 0 549 517" enable-background="new 0 0 549 517" xml:space="preserve">
<g>
	<g id="_x23_ffb94aff">
		<path fill="#F8B84E" d="M275.28,79.582h10.906c14.843,0.693,29.714,1.167,44.511,2.712c47.268,2.971,94.534,5.912,141.802,8.868
			c10.505,0.581,20.065,8.237,23.267,18.2c1.982,6.188,1.115,12.768,0.826,19.134c-0.133,7.151-0.719,14.28-0.741,21.432
			c-1.323,31.624-2.567,63.25-3.978,94.87c-1.698,33.542-2.474,67.13-4.502,100.656c-2.574,8.368-8.67,15.871-17.09,18.796
			c-57.215,19.144-114.497,38.067-171.72,57.195c-7.195,2.493-14.78,3.966-22.414,3.921c-1.921-5.093-0.398-10.78-0.861-16.117
			c3.425,0.005,6.692-1.131,9.886-2.248c54.755-18.113,109.489-36.287,164.243-54.417c3.318-1.104,6.789-2.013,9.69-4.063
			c5.26-3.562,8.588-9.744,8.725-16.089c3.119-70.523,6.213-141.052,9.348-211.575c0.346-4.526-2.273-9.042-6.329-11.04
			c-2.86-1.437-6.153-1.238-9.262-1.382c-46.313-1.66-92.623-3.465-138.937-5.143c-15.756-1.273-31.57-1.494-47.364-1.769
			c-0.021-7.146-0.01-14.285-0.006-21.431V79.582z"/>
		<path fill="#F8B84E" d="M304.572,130.341c0.014-0.025,0.045-0.071,0.065-0.092C304.617,130.27,304.585,130.315,304.572,130.341z"
			/>
		<path fill="#F8B84E" d="M273.986,152.176c0.016,0.02,0.046,0.071,0.061,0.091C274.032,152.247,274.001,152.195,273.986,152.176z"
			/>
		<path fill="#F8B84E" d="M140.457,160.411c0.016-0.025,0.046-0.071,0.066-0.092C140.502,160.34,140.472,160.386,140.457,160.411z"
			/>
		<path fill="#F8B84E" d="M362.669,160.407c0.021-0.021,0.051-0.067,0.066-0.092C362.72,160.34,362.69,160.386,362.669,160.407z"/>
		<path fill="#F8B84E" d="M281.126,161.436c0.02-0.024,0.051-0.076,0.066-0.097C281.177,161.359,281.146,161.411,281.126,161.436z"
			/>
		<path fill="#F8B84E" d="M280.081,163.448c0.011-0.029,0.036-0.08,0.053-0.106C280.117,163.368,280.091,163.419,280.081,163.448z"
			/>
		<path fill="#F8B84E" d="M275.28,180.788c63.255-0.045,126.513-0.111,189.757,0.031c-2.054,48.659-4.297,97.312-6.392,145.97
			c-0.146,3.624,0.239,7.589-1.845,10.78c-1.596,2.568-4.285,4.22-7.146,5.031c-55.916,18.459-111.797,37.037-167.692,55.548
			c-2.166,0.796-4.384,1.483-6.683,1.749c0.006-32.538-0.04-65.074,0.025-97.613c-0.005-0.947-0.347-1.835-0.646-2.711
			c7.792-16.457,14.688-33.354,22.685-49.714c0.402-0.434,0.886-0.784,1.437-1.05c0.331,25.973-0.005,51.971,0.164,77.949
			c0.086,2.986,2.98,5.357,5.892,5.285c6.126,0.025,12.252,0.056,18.379-0.011c3.322,0.072,6.152-2.955,5.922-6.258
			c-0.006-39.597,0.021-79.203-0.015-118.8c0.148-3.461-3.079-6.137-6.401-6.055c-7.481-0.118-14.971,0.035-22.451-0.066
			c-2.248,0.01-4.796,0.004-6.539,1.652c-1.62,1.604-2.278,3.867-3.243,5.881c-5.02,11.137-9.941,22.318-15.066,33.409
			C275.087,221.465,275.356,201.124,275.28,180.788 M347.353,200.661c-3.059,0.336-5.52,3.221-5.285,6.309
			c-0.021,39.434-0.011,78.872-0.006,118.307c-0.342,3.501,2.504,6.93,6.117,6.777c23.95,0.012,47.903,0.006,71.854,0.006
			c3.013,0.163,6.104-2.166,6.228-5.291c0.174-4.066,0.092-8.149,0.046-12.222c0.119-3.322-3.037-5.968-6.229-5.922
			c-13.261-0.057-26.527,0-39.794-0.021c-3.206,0.203-6.463-2.457-6.439-5.754c-0.003-32.119,0.012-64.24-0.003-96.354
			c0.178-3.349-3.059-6.057-6.27-5.943C360.833,200.614,354.081,200.405,347.353,200.661z"/>
	</g>
	<g id="_x23_ffc552ff">
		<path fill="#FAC355" d="M220.816,82.783c18.104-1.788,36.289-2.401,54.464-2.69c-0.004,7.146-0.015,14.285,0.006,21.431
			c-16.304,0.153-32.604,0.688-48.874,1.79c-47.425,1.824-94.854,3.552-142.284,5.32c-4.664,0.153-8.975,3.485-10.362,7.93
			c-0.846,2.886-0.403,5.928-0.327,8.88c3.063,69.33,6.147,138.656,9.194,207.987c0.474,6.9,4.792,13.434,11.024,16.467
			c2.646,1.279,5.5,2.023,8.268,2.982c53.938,17.914,107.917,35.723,161.846,53.678c3.757,1.178,7.502,2.737,11.515,2.691
			c0.463,5.337-1.06,11.024,0.861,16.117c-8.608,0.188-17.196-1.362-25.274-4.303c-56.85-18.965-113.729-37.813-170.568-56.787
			c-10.672-3.604-17.65-14.363-18.038-25.424c-0.02-0.305-0.057-0.922-0.077-1.227c0.326-8.195-0.575-16.377-0.698-24.573
			c-0.897-16.329-1.112-32.699-2.304-49.009l-0.025-0.402c0.025-3.957,0.127-7.941-0.547-11.85
			c-0.351-2.315-0.503-4.654-0.469-6.994c-0.016-1.839-0.086-3.68-0.143-5.52c0.114-3.676,0.26-7.38-0.397-11.02
			c-0.021-0.306-0.061-0.927-0.081-1.232c0.045-3.68,0.239-7.381-0.434-11.02c-0.041-0.571-0.077-1.137-0.107-1.703
			c0.072-3.348,0.24-6.717-0.407-10.025c-0.974-18.113-1.279-36.258-2.385-54.366c-0.189-3.007-0.164-6.02-0.245-9.026
			c0.137-3.155,0.081-6.32-0.321-9.459c-0.062-0.924-0.128-1.851-0.184-2.773c0.107-3.149,0.076-6.305-0.327-9.439
			c-0.463-13.577,10.699-26.584,24.409-27.45C125.289,88.716,173.055,85.785,220.816,82.783z"/>
		<path fill="#FAC355" d="M334.908,131.829c0.098-1.754,0.707-3.419,1.523-4.964c-0.342,1.539-0.652,3.099-1.325,4.536
			L334.908,131.829z"/>
		<path fill="#FAC355" d="M344.622,136.191c0.101,0.255,0.311,0.755,0.417,1.01C344.932,136.946,344.722,136.446,344.622,136.191z"
			/>
		<path fill="#FAC355" d="M294.642,161.905c0.097-1.758,0.709-3.431,1.523-4.971c-0.336,1.54-0.651,3.101-1.324,4.537
			L294.642,161.905z"/>
		<path fill="#FAC355" d="M325.218,161.901c0.096-1.76,0.714-3.427,1.528-4.971c-0.341,1.539-0.647,3.104-1.325,4.535
			L325.218,161.901z"/>
		<path fill="#FAC355" d="M304.352,166.268c0.102,0.25,0.315,0.749,0.419,1.005C304.667,167.017,304.454,166.518,304.352,166.268z"
			/>
		<path fill="#FAC355" d="M334.937,166.263c0.103,0.25,0.313,0.754,0.418,1.004C335.25,167.017,335.04,166.513,334.937,166.263z"/>
		<path fill="#FAC355" d="M85.452,180.793c63.275-0.087,126.552-0.076,189.828-0.005c0.076,20.336-0.192,40.677,0.142,61.009
			c-3.765,8.072-7.429,16.228-11.696,24.046c-9.25-18.802-17.695-37.98-26.394-57.039c-0.986-2.043-1.652-4.301-3.182-6.022
			c-1.729-1.831-4.419-1.942-6.769-1.927c-7.487,0.086-14.981-0.03-22.462,0.046c-2.705-0.026-5.607,1.514-6.377,4.24
			c-0.541,2.272-0.29,4.638-0.323,6.958c0.022,37.889-0.017,75.782,0.019,113.671c-0.218,3.212,2.452,6.204,5.682,6.244
			c6.124,0.132,12.249,0.005,18.369,0.056c3.08,0.225,6.26-2.125,6.396-5.311c0.215-26.131-0.193-52.277,0.204-78.402
			c0.521,0.463,1.255,0.76,1.561,1.437c7.396,15.963,14.403,32.115,21.629,48.154c1.612,3.976,6.382,3.884,9.961,3.685
			c4.209-0.336,9.179,1.162,12.62-2.059c0.299,0.876,0.641,1.764,0.646,2.711c-0.065,32.539-0.02,65.075-0.025,97.613
			c-1.219-0.189-2.44-0.347-3.628-0.684c-57.287-19.001-114.585-37.98-171.878-56.966c-4.49-1.3-7.829-5.642-7.813-10.331
			C89.902,281.535,87.357,231.175,85.452,180.793 M156.2,201.13c-2.222,0.79-4.016,2.92-3.918,5.356
			c-0.025,39.923-0.006,79.851-0.011,119.777c-0.174,3.141,2.727,5.816,5.795,5.774c6.452,0.067,12.911-0.01,19.367,0.037
			c2.688,0.199,5.434-1.525,6.253-4.119c0.388-1.895,0.159-3.854,0.2-5.77c-0.012-38.577-0.006-77.154,0-115.727
			c0.075-3.552-3.613-6.11-6.963-5.697C170.027,201.022,163.045,200.319,156.2,201.13z"/>
	</g>
	<g id="_x23_3b4656ff">
		<path fill="#3C4656" d="M226.412,103.313c16.27-1.102,32.57-1.637,48.874-1.79c15.794,0.274,31.608,0.495,47.364,1.769
			c46.313,1.678,92.623,3.482,138.937,5.143c3.108,0.144,6.401-0.055,9.262,1.382c4.056,1.998,6.675,6.514,6.329,11.04
			c-3.135,70.523-6.229,141.052-9.348,211.575c-0.137,6.345-3.465,12.527-8.725,16.089c-2.901,2.051-6.372,2.959-9.69,4.063
			c-54.754,18.13-109.488,36.304-164.243,54.417c-3.193,1.117-6.461,2.253-9.886,2.248c-4.013,0.046-7.758-1.514-11.515-2.691
			c-53.929-17.955-107.908-35.764-161.846-53.678c-2.768-0.959-5.622-1.703-8.268-2.982c-6.232-3.033-10.551-9.566-11.024-16.467
			c-3.047-69.331-6.131-138.657-9.194-207.987c-0.076-2.952-0.52-5.994,0.327-8.88c1.387-4.444,5.698-7.776,10.362-7.93
			C131.558,106.865,178.987,105.138,226.412,103.313 M199.756,121.396c-0.147,3.711,0.126,7.426-0.122,11.132
			c0.035,1.376-1.514,1.655-2.472,2.136c-0.006,1.023-0.006,2.049-0.006,3.067c2.177,0.122,4.826-0.224,5.786-2.507
			c1.238-3.247,0.565-6.819,0.67-10.215c1.189-0.035,2.372-0.061,3.56-0.092c0.087,4.237,0.057,8.477,0.005,12.717
			c1.413,0.036,2.83,0.041,4.246,0.011c-0.051-5.402-0.051-10.806,0-16.208C207.536,121.319,203.646,121.376,199.756,121.396
			 M219.9,121.6c-5.292,1.172-6.235,7.905-4.451,12.196c2.208,5.26,10.918,5.27,13.258,0.123c1.355-3.053,1.253-6.871-0.557-9.72
			C226.387,121.549,222.824,120.881,219.9,121.6 M232.326,121.387c-0.066,5.433-0.066,10.87,0,16.304
			c1.386,0,2.776-0.016,4.168-0.031c0-4.225-0.051-8.454,0.017-12.675c2.634-0.062,5.271-0.042,7.903-0.046c0-1.184,0-2.369,0-3.557
			C240.382,121.371,236.352,121.365,232.326,121.387 M247.107,121.365c-0.067,5.444-0.067,10.887,0,16.331
			c1.385-0.006,2.771-0.021,4.162-0.052c2.089-2.972,3.905-6.146,6.213-8.965c0.239,2.981,0.104,5.974,0.104,8.965
			c1.375,0.025,2.752,0.046,4.133,0.056c0.076-5.448,0.076-10.891,0-16.34c-1.388,0.011-2.779,0.026-4.165,0.066
			c-2.09,3.119-3.878,6.447-6.228,9.389c-0.239-3.136-0.092-6.274-0.108-9.408C249.847,121.387,248.475,121.371,247.107,121.365
			 M265.79,125.56c-1.172,3.461-0.999,7.961,1.901,10.546c3.258,2.66,8.506,1.973,11.101-1.315
			c-0.974-0.774-1.956-1.534-2.951-2.277c-1.392,1.019-3.378,2.436-4.979,0.947c-1.962-1.992-2.023-5.887-0.017-7.864
			c1.515-1.468,3.451-0.112,4.848,0.796c0.902-0.75,1.81-1.489,2.721-2.223C275.544,119.729,267.656,120.597,265.79,125.56
			 M279.556,121.441c0.004,1.142,0.004,2.284,0,3.426c1.58,0.056,3.165,0.097,4.744,0.147c-0.033,4.226-0.07,8.456,0.012,12.682
			c1.37-0.012,2.742-0.021,4.114-0.046c-0.013-4.226-0.058-8.457,0.014-12.682c1.539-0.016,3.084-0.04,4.633-0.062
			c-0.01-1.167-0.01-2.334,0-3.496C288.568,121.365,284.056,121.313,279.556,121.441 M295.525,121.365
			c-0.066,5.444-0.066,10.887,0,16.331c1.386-0.006,2.773-0.021,4.164-0.052c1.62-2.437,3.277-4.853,4.883-7.304
			c0.014-0.025,0.045-0.071,0.065-0.092c0.409-0.535,0.837-1.061,1.284-1.569c0.199,2.981,0.087,5.974,0.082,8.965
			c1.376,0.025,2.751,0.046,4.133,0.052c0.077-5.444,0.077-10.887,0-16.336c-1.392,0.011-2.777,0.026-4.164,0.066
			c-2.088,3.119-3.878,6.447-6.228,9.389c-0.24-3.131-0.092-6.27-0.107-9.404C298.265,121.387,296.894,121.376,295.525,121.365
			 M312.853,121.371c-0.066,5.438-0.066,10.881,0,16.325c1.371-0.012,2.742-0.021,4.119-0.046c-0.025-2.457-0.092-4.919,0.102-7.376
			c1.932,2.161,3.129,4.832,4.867,7.131c1.666,0.616,3.572,0.179,5.336,0.245c-1.793-2.773-3.92-5.327-5.555-8.19
			c1.304-2.967,3.852-5.307,5.605-8.059c-1.681-0.046-3.362-0.036-5.041,0.03c-1.737,2.405-3.322,4.929-5.232,7.202
			c-0.154-2.406-0.113-4.816-0.082-7.227C315.595,121.387,314.224,121.376,312.853,121.371 M334.495,121.427
			c-1.927,5.434-4.042,10.799-5.893,16.258c1.483,0.016,2.967-0.01,4.444-0.106c0.275-0.974,0.565-1.942,0.852-2.911
			c1.981-0.081,3.971-0.07,5.958,0.053c0.372,0.987,0.748,1.973,1.126,2.96c1.503,0.025,3.018,0.021,4.518-0.147l-0.461-0.331
			c-0.106-0.255-0.316-0.755-0.417-1.01c-1.345-5.03-3.558-9.806-5.2-14.755C337.777,121.36,336.136,121.36,334.495,121.427
			 M131.411,151.44c-0.067,5.438-0.067,10.882,0,16.325c1.386-0.005,2.771-0.02,4.162-0.051c1.628-2.436,3.278-4.851,4.884-7.304
			c0.016-0.025,0.046-0.071,0.066-0.092c0.408-0.535,0.836-1.055,1.283-1.564c0.2,2.982,0.087,5.974,0.082,8.96
			c1.377,0.026,2.758,0.042,4.134,0.051c0.075-5.443,0.075-10.892,0-16.335c-1.387,0.01-2.778,0.025-4.164,0.066
			c-2.09,3.12-3.879,6.447-6.228,9.389c-0.24-3.13-0.088-6.274-0.107-9.408C134.152,151.456,132.781,151.44,131.411,151.44
			 M149.248,151.44c-0.065,5.438-0.065,10.882,0,16.32c1.391-0.004,2.777-0.015,4.17-0.03c-0.027-2.187-0.02-4.374,0.017-6.56
			c1.905-0.057,3.812-0.061,5.717-0.01c0.03,2.186,0.04,4.378,0.011,6.564c1.396,0.021,2.792,0.035,4.195,0.035
			c0.069-5.438,0.069-10.882-0.006-16.32c-1.397,0-2.793,0.016-4.186,0.037c0.025,2.018,0.016,4.037-0.015,6.055
			c-1.905,0.051-3.812,0.045-5.717-0.011c-0.032-2.019-0.044-4.031-0.017-6.049C152.025,151.456,150.635,151.44,149.248,151.44
			 M165.899,151.512c0.005,1.144,0.005,2.284,0,3.427c1.58,0.05,3.165,0.096,4.751,0.152c-0.041,4.225-0.076,8.45,0.006,12.67
			c1.369-0.004,2.74-0.015,4.111-0.035c-0.012-4.23-0.056-8.461,0.016-12.686c1.544-0.016,3.089-0.041,4.633-0.066
			c-0.01-1.162-0.01-2.329-0.005-3.491C174.91,151.44,170.4,151.385,165.899,151.512 M181.358,151.456
			c-0.066,5.428-0.066,10.861,0,16.29c4.158,0.011,8.312,0.046,12.472-0.026c-0.005-1.166-0.005-2.334-0.005-3.501
			c-2.768-0.056-5.528-0.005-8.298-0.065c-0.006-0.994,0-1.988,0-2.982c1.851-0.03,3.7-0.051,5.557-0.082
			c-0.012-1.162-0.012-2.324,0-3.485c-1.856-0.03-3.706-0.051-5.557-0.087c0-0.821,0-1.646,0-2.466
			c2.687-0.058,5.372-0.006,8.054-0.093c-0.011-1.152-0.011-2.303,0-3.451C189.507,151.385,185.429,151.456,181.358,151.456
			 M196.138,151.456c-0.064,5.434-0.064,10.873,0,16.305c1.371-0.004,2.742-0.015,4.112-0.035c-0.024-1.855-0.02-3.705,0.016-5.551
			c2.478-0.102,5.388,0.423,7.39-1.416c2.881-2.462,2.031-8.125-1.869-9.042C202.612,151.136,199.349,151.563,196.138,151.456
			 M211.428,151.44c-0.065,5.438-0.065,10.882,0,16.32c1.386-0.004,2.777-0.015,4.169-0.03c-0.025-2.187-0.02-4.374,0.016-6.56
			c1.906-0.061,3.813-0.061,5.719-0.01c0.029,2.186,0.04,4.378,0.011,6.564c1.396,0.021,2.792,0.035,4.188,0.04
			c0.078-5.443,0.078-10.887,0-16.33c-1.396,0.005-2.793,0.021-4.185,0.042c0.021,2.018,0.015,4.037-0.011,6.055
			c-1.909,0.051-3.816,0.045-5.723-0.011c-0.03-2.013-0.041-4.031-0.016-6.049C214.206,151.452,212.814,151.44,211.428,151.44
			 M228.758,151.456c-0.066,5.428-0.066,10.861,0,16.29c4.152,0.011,8.311,0.046,12.472-0.026c-0.006-1.166-0.006-2.334-0.006-3.501
			c-2.768-0.056-5.529-0.005-8.297-0.065c-0.005-0.994-0.005-1.988,0-2.982c1.85-0.03,3.7-0.051,5.551-0.082
			c-0.007-1.162-0.007-2.324,0.004-3.485c-1.854-0.03-3.705-0.051-5.555-0.087c0-0.821,0-1.646-0.005-2.466
			c2.684-0.058,5.372-0.006,8.056-0.093c-0.009-1.152-0.009-2.303,0.008-3.451C236.907,151.385,232.83,151.456,228.758,151.456
			 M242.86,151.512c0.006,1.144,0.006,2.284,0,3.427c1.58,0.05,3.166,0.096,4.752,0.152c-0.037,4.22-0.078,8.45,0.004,12.67
			c1.37-0.004,2.742-0.015,4.113-0.035c-0.011-4.23-0.057-8.461,0.013-12.686c1.541-0.016,3.086-0.041,4.635-0.061
			c-0.01-1.168-0.01-2.335,0-3.497C251.871,151.436,247.361,151.385,242.86,151.512 M269.582,151.452
			c-0.056,5.432-0.056,10.87,0,16.309c1.341-0.01,2.681-0.025,4.026-0.057c-0.046-2.572-0.127-5.146,0.103-7.715
			c1.569,2.431,2.568,5.172,4.139,7.607c0.816-1.344,1.566-2.726,2.231-4.148c0.011-0.029,0.036-0.08,0.053-0.106
			c0.305-0.651,0.637-1.284,0.993-1.906c0.02-0.024,0.051-0.076,0.066-0.097c0.188-0.244,0.57-0.729,0.758-0.968
			c0.199,2.44,0.117,4.893,0.099,7.339c1.375,0.031,2.752,0.047,4.133,0.061c0.077-5.448,0.077-10.896,0-16.339
			c-1.391,0.009-2.783,0.03-4.169,0.075c-1.375,2.748-2.646,5.552-4.164,8.227c-1.376-2.436-2.442-5.025-3.803-7.467
			c-0.015-0.02-0.045-0.071-0.061-0.091C272.988,150.851,271.004,151.646,269.582,151.452 M294.223,151.497
			c-1.925,5.434-4.024,10.806-5.899,16.26c1.482,0.014,2.97-0.011,4.459-0.108c0.273-0.974,0.565-1.94,0.852-2.91
			c1.98-0.081,3.971-0.071,5.957,0.052c0.373,0.988,0.749,1.973,1.127,2.961c1.509,0.025,3.018,0.02,4.516-0.148l-0.463-0.33
			c-0.104-0.256-0.317-0.755-0.419-1.005c-1.331-5.036-3.558-9.812-5.192-14.761C297.511,151.432,295.867,151.432,294.223,151.497
			 M307.248,151.456c-0.066,5.434-0.066,10.873,0,16.305c1.387-0.004,2.776-0.015,4.168-0.03c0-4.226-0.05-8.455,0.017-12.68
			c2.634-0.058,5.27-0.031,7.903-0.042c0-1.188,0-2.37,0-3.557C315.305,151.44,311.274,151.437,307.248,151.456 M324.81,151.497
			c-1.927,5.434-4.042,10.8-5.893,16.26c1.484,0.014,2.963-0.011,4.445-0.108c0.275-0.974,0.564-1.94,0.852-2.91
			c1.983-0.081,3.97-0.071,5.957,0.052c0.373,0.988,0.75,1.973,1.131,2.961c1.504,0.025,3.013,0.02,4.516-0.148l-0.463-0.336
			c-0.105-0.25-0.315-0.754-0.418-1.004c-1.346-5.031-3.557-9.807-5.198-14.751C328.094,151.432,326.446,151.432,324.81,151.497
			 M337.955,153.603c0.628,0.902,1.273,1.789,1.932,2.676c1.887-0.959,6.238-2.66,6.371,0.774c-1.422,0.417-2.9,0.571-4.373,0.587
			c-0.005,0.973-0.005,1.946,0,2.92c1.564,0.123,4.864-0.397,4.517,2.1c-1.475,2.687-4.959,1.265-6.953,0
			c-0.796,0.841-1.569,1.702-2.329,2.574c3.049,2.955,8.2,3.426,11.774,1.188c2.552-1.688,2.247-5.633-0.204-7.273
			c2.115-1.504,2.787-4.99,0.382-6.555C345.682,150.483,341.053,151.293,337.955,153.603 M353.628,151.437
			c-0.067,5.442-0.067,10.886,0,16.329c1.381-0.005,2.767-0.02,4.152-0.051c1.621-2.441,3.293-4.847,4.889-7.308
			c0.021-0.021,0.051-0.067,0.066-0.092c0.412-0.535,0.84-1.061,1.288-1.57c0.2,2.987,0.088,5.979,0.081,8.97
			c1.377,0.026,2.754,0.046,4.135,0.056c0.078-5.448,0.078-10.892,0-16.339c-1.391,0.01-2.777,0.024-4.159,0.065
			c-2.096,3.114-3.884,6.447-6.235,9.384c-0.238-3.13-0.09-6.27-0.104-9.398C356.371,151.456,354.994,151.441,353.628,151.437
			 M371.977,151.441c-0.067,5.438-0.067,10.881,0,16.319c1.385-0.004,2.774-0.015,4.167-0.03c-0.03-2.187-0.02-4.374,0.021-6.56
			c1.902-0.061,3.809-0.061,5.714-0.004c0.03,2.186,0.041,4.372,0.01,6.559c1.396,0.021,2.794,0.035,4.19,0.035
			c0.077-5.438,0.077-10.882,0-16.324c-1.396,0.005-2.794,0.02-4.186,0.041c0.022,2.018,0.012,4.037-0.011,6.055
			c-1.909,0.045-3.815,0.045-5.722-0.011c-0.03-2.013-0.042-4.031-0.017-6.049C374.751,151.456,373.362,151.441,371.977,151.441
			 M393.699,151.665c-5.292,1.178-6.234,7.915-4.449,12.202c2.158,5.122,10.498,5.284,13.072,0.475
			c1.533-3.019,1.467-6.851-0.189-9.807C400.435,151.706,396.725,150.907,393.699,151.665 M406.124,151.456
			c-0.065,5.428-0.065,10.861,0,16.29c3.486-0.168,7.084,0.458,10.504-0.408c3.65-1.223,4.022-6.783,0.495-8.435
			c2.508-1.671,2.514-5.958-0.536-7.028C413.194,150.972,409.599,151.636,406.124,151.456 M258.859,157.583c0,1.178,0,2.35,0,3.521
			c2.445,0.046,4.893,0.046,7.34-0.01c0-1.168,0-2.33,0-3.496C263.751,157.537,261.304,157.542,258.859,157.583 M85.452,180.793
			c1.906,50.382,4.45,100.742,6.509,151.124c-0.016,4.689,3.324,9.031,7.813,10.331c57.293,18.985,114.591,37.965,171.878,56.966
			c1.188,0.337,2.409,0.494,3.628,0.684c2.299-0.266,4.517-0.953,6.683-1.749c55.896-18.511,111.776-37.089,167.692-55.548
			c2.86-0.812,5.55-2.463,7.146-5.031c2.084-3.191,1.698-7.156,1.845-10.78c2.095-48.658,4.338-97.311,6.392-145.97
			c-63.244-0.143-126.502-0.076-189.757-0.031C212.003,180.717,148.727,180.706,85.452,180.793z"/>
		<path fill="#3C4656" d="M221.392,125.015c5.311-0.856,5.209,9.846-0.005,9.031C218.028,132.599,218.013,126.422,221.392,125.015z"
			/>
		<path fill="#3C4656" d="M336.747,125.474c0.766,2.008,1.458,4.047,2.014,6.121c-1.223-0.016-2.448-0.072-3.654-0.193
			c0.673-1.438,0.983-2.997,1.325-4.536C336.512,126.518,336.669,125.824,336.747,125.474z"/>
		<path fill="#3C4656" d="M5.673,149.876c16.172,0.087,32.349,0.025,48.521,0.036c1.106,18.108,1.412,36.253,2.385,54.366
			c-0.137,3.349,0.076,6.693,0.407,10.025c0.03,0.566,0.066,1.132,0.107,1.703c-0.167,3.68,0.057,7.354,0.434,11.02
			c0.02,0.306,0.061,0.927,0.081,1.232c-0.193,3.681,0.086,7.355,0.397,11.02c0.056,1.84,0.127,3.681,0.143,5.52
			c-17.41,0.016-34.82,0.077-52.226-0.03c7.482-15.575,15.546-30.865,23.124-46.396c-7.864-16.029-15.362-32.236-23.373-48.194
			V149.876z"/>
		<path fill="#3C4656" d="M495.85,149.928c16.26,0,32.522-0.056,48.782,0.025c-7.469,15.153-15.107,30.219-22.686,45.315
			c-1.009,1.701,0.591,3.389,1.198,4.949c7.136,14.846,14.382,29.642,21.401,44.55c-17.559,0.107-35.117,0.046-52.674,0.03
			C493.283,213.178,494.527,181.552,495.85,149.928z"/>
		<path fill="#3C4656" d="M200.246,154.988c1.642,0.097,4.98-0.511,4.771,2.054c-0.373,2.137-3.216,1.397-4.771,1.561
			C200.246,157.399,200.246,156.191,200.246,154.988z"/>
		<path fill="#3C4656" d="M395.192,155.085c5.311-0.861,5.207,9.848-0.007,9.032C391.827,162.669,391.812,156.492,395.192,155.085z"
			/>
		<path fill="#3C4656" d="M410.292,155.04c1.422,0.158,4.438-0.811,4.374,1.482c-0.617,1.723-2.988,0.82-4.374,1.02
			C410.289,156.706,410.289,155.87,410.292,155.04z"/>
		<path fill="#3C4656" d="M296.483,155.544c0.765,2.009,1.457,4.047,2.014,6.121c-1.225-0.016-2.441-0.07-3.655-0.193
			c0.673-1.437,0.988-2.997,1.324-4.537C296.248,156.589,296.406,155.896,296.483,155.544z"/>
		<path fill="#3C4656" d="M327.062,155.55c0.766,2.003,1.458,4.041,2.014,6.115c-1.224-0.016-2.446-0.07-3.654-0.199
			c0.678-1.431,0.984-2.996,1.325-4.535C326.83,156.583,326.987,155.896,327.062,155.55z"/>
		<path fill="#3C4656" d="M410.292,160.642c1.312,0.02,2.686-0.194,3.967,0.213c1.396,0.398,1.349,2.687,0.009,3.114
			c-1.29,0.393-2.66,0.179-3.976,0.198C410.289,162.989,410.289,161.813,410.292,160.642z"/>
		<path fill="#3C4656" d="M347.353,200.661c6.728-0.256,13.48-0.047,20.219-0.107c3.211-0.113,6.447,2.595,6.27,5.943
			c0.015,32.113,0,64.234,0.003,96.354c-0.023,3.297,3.233,5.957,6.439,5.754c13.267,0.021,26.533-0.036,39.794,0.021
			c3.191-0.046,6.348,2.6,6.229,5.922c0.046,4.072,0.128,8.155-0.046,12.222c-0.123,3.125-3.215,5.454-6.228,5.291
			c-23.95,0-47.903,0.006-71.854-0.006c-3.613,0.152-6.459-3.276-6.117-6.777c-0.005-39.435-0.016-78.873,0.006-118.307
			C341.833,203.882,344.294,200.997,347.353,200.661z"/>
		<path fill="#3C4656" d="M156.2,201.13c6.846-0.811,13.827-0.107,20.724-0.367c3.35-0.413,7.038,2.146,6.963,5.697
			c-0.006,38.572-0.012,77.149,0,115.727c-0.041,1.916,0.188,3.875-0.2,5.77c-0.819,2.594-3.565,4.318-6.253,4.119
			c-6.456-0.047-12.915,0.03-19.367-0.037c-3.068,0.042-5.969-2.634-5.795-5.774c0.005-39.927-0.015-79.854,0.011-119.777
			C152.184,204.05,153.978,201.92,156.2,201.13z"/>
		<path fill="#3C4656" d="M198.542,205.141c0.77-2.727,3.672-4.267,6.377-4.24c7.48-0.076,14.975,0.04,22.462-0.046
			c2.35-0.016,5.04,0.096,6.769,1.927c1.529,1.722,2.195,3.979,3.182,6.022c8.698,19.059,17.144,38.237,26.394,57.039
			c4.268-7.818,7.932-15.974,11.696-24.046c5.125-11.091,10.047-22.272,15.066-33.409c0.965-2.014,1.623-4.277,3.243-5.881
			c1.743-1.648,4.291-1.643,6.539-1.652c7.48,0.102,14.97-0.052,22.451,0.066c3.322-0.082,6.55,2.594,6.401,6.055
			c0.035,39.597,0.009,79.203,0.015,118.8c0.23,3.303-2.6,6.33-5.922,6.258c-6.127,0.066-12.253,0.036-18.379,0.011
			c-2.911,0.072-5.806-2.299-5.892-5.285c-0.169-25.979,0.167-51.977-0.164-77.949c-0.551,0.266-1.034,0.616-1.437,1.05
			c-7.996,16.36-14.893,33.257-22.685,49.714c-3.441,3.221-8.411,1.723-12.62,2.059c-3.579,0.199-8.349,0.291-9.961-3.685
			c-7.226-16.039-14.232-32.191-21.629-48.154c-0.306-0.677-1.04-0.974-1.561-1.437c-0.397,26.125,0.011,52.271-0.204,78.402
			c-0.137,3.186-3.316,5.535-6.396,5.311c-6.12-0.051-12.245,0.076-18.369-0.056c-3.229-0.04-5.899-3.032-5.682-6.244
			c-0.035-37.889,0.004-75.782-0.019-113.671C198.252,209.778,198.001,207.413,198.542,205.141z"/>
	</g>
	<g id="_x23_b77f2eff">
		<path fill="#B67F2E" d="M53.118,119.214c0.403,3.135,0.434,6.29,0.327,9.439C53.098,125.519,53.036,122.369,53.118,119.214z"/>
		<path fill="#B67F2E" d="M53.628,131.427c0.402,3.139,0.458,6.304,0.321,9.459C53.618,137.746,53.537,134.586,53.628,131.427z"/>
		<path fill="#B67F2E" d="M56.58,204.278c0.647,3.309,0.479,6.678,0.407,10.025C56.656,210.972,56.443,207.627,56.58,204.278z"/>
		<path fill="#B67F2E" d="M57.094,216.007c0.673,3.639,0.479,7.34,0.434,11.02C57.15,223.361,56.926,219.687,57.094,216.007z"/>
		<path fill="#B67F2E" d="M57.609,228.259c0.657,3.64,0.511,7.344,0.397,11.02C57.695,235.614,57.416,231.939,57.609,228.259z"/>
		<path fill="#B67F2E" d="M58.617,251.792c0.674,3.908,0.572,7.893,0.547,11.85C58.486,259.722,58.689,255.741,58.617,251.792z"/>
		<path fill="#B67F2E" d="M59.189,264.044c1.191,16.31,1.406,32.68,2.304,49.009c0.123,8.196,1.023,16.378,0.698,24.573
			c-0.704-5.281-0.361-10.617-0.871-15.914C60.759,302.483,59.458,283.272,59.189,264.044z"/>
		<path fill="#B67F2E" d="M62.267,338.853c0.388,11.061,7.365,21.819,18.038,25.424c56.839,18.975,113.718,37.822,170.568,56.787
			c8.078,2.94,16.666,4.49,25.274,4.303c7.634,0.045,15.219-1.428,22.414-3.921c57.223-19.128,114.505-38.052,171.72-57.195
			c8.42-2.925,14.516-10.428,17.09-18.796c0.142,10.927-7.354,21.359-17.681,24.866c-57.037,19.771-114.08,39.517-171.118,59.28
			c-14.449,5.316-30.661,5.551-45.274,0.719c-57.791-20.015-115.583-40.04-173.381-60.049c-7.384-2.636-13.445-8.721-16.019-16.137
			C62.11,349.251,62.14,343.976,62.267,338.853z"/>
	</g>
</g>
</svg>
