<?xml version="1.0" encoding="utf-8"?>
<!-- Generator: Adobe Illustrator 24.0.1, SVG Export Plug-In . SVG Version: 6.00 Build 0)  -->
<svg version="1.1" id="Слой_1" xmlns="http://www.w3.org/2000/svg" xmlns:xlink="http://www.w3.org/1999/xlink" x="0px" y="0px"
	 width="380.93px" height="70.613px" viewBox="0 0 663.44 102.83" style="enable-background:new 0 0 663.44 102.83;" xml:space="preserve">
<style type="text/css">
	.st0{fill:#505456;}
	.st1{fill:#E84E0F;}
</style>
	<path class="st0" d="M622.4,38.18c-1.16,0.04-2.33,0.02-3.48,0.12c-3.07,0.28-5.5,2.31-6.29,5.18c-0.26,0.93-0.3,1.87-0.2,2.81
	c0.3,2.65,1.71,4.56,4.21,5.71c1.07,0.49,2.21,0.67,3.38,0.69c0.91,0.02,1.82,0,2.72,0.01c0.28,0,0.57,0.04,0.83,0.07
	c0.26,0.48,0.16,0.94,0.16,1.39c0.01,8.13,0,16.25,0.01,24.38c0,0.95,0.01,1.89,0.06,2.84c0.14,2.67,0.62,5.29,1.55,7.81
	c1.48,3.98,3.97,7.21,7.66,9.55c1.99,1.26,4.14,2.18,6.43,2.79c4.75,1.27,9.57,1.59,14.46,1.02c1.7-0.2,3.36-0.61,4.93-1.27
	c2.2-0.93,3.81-2.4,4.4-4.74c0.02-0.08,0.14-0.15,0.21-0.22v-3.99c-0.08-0.11-0.18-0.2-0.23-0.32c-0.18-0.42-0.29-0.87-0.51-1.26
	c-0.84-1.49-2.16-2.43-3.81-2.96c-1.33-0.43-2.7-0.57-4.09-0.4c-1.64,0.2-3.27,0.05-4.89-0.11c-1.12-0.11-2.21-0.37-3.27-0.77
	c-2.4-0.9-3.94-2.55-4.63-4.94c-0.38-1.3-0.47-2.62-0.47-3.95c0-2.8,0-5.61,0-8.41c0-5.04,0-10.09,0-15.13
	c0-0.41-0.05-0.83,0.09-1.27c0.41-0.13,0.81-0.09,1.2-0.09c3.41,0,6.83,0,10.24-0.01c0.62,0,1.24-0.03,1.84-0.13
	c2.78-0.44,4.69-1.92,5.7-4.47c0.4-1,0.46-2.05,0.43-3.1c-0.09-3.41-2.7-6.38-6.53-6.71c-0.69-0.06-1.38-0.1-2.06-0.1
	c-3.23-0.01-6.47,0-9.7-0.01c-0.38,0-0.8,0.11-1.2-0.2c-0.01-0.36-0.03-0.74-0.03-1.12c0-2.17,0.01-4.34-0.01-6.52
	c-0.01-0.73-0.03-1.47-0.14-2.2c-0.35-2.45-1.55-4.43-3.69-5.82c-2.16-1.41-4.56-1.77-7.08-1.24c-3.48,0.73-5.67,2.8-6.61,6.12
	c-0.23,0.82-0.27,1.66-0.27,2.5c0,2.42,0,4.84-0.01,7.25c0,0.38,0.1,0.78-0.16,1.12C623.2,38.25,622.8,38.16,622.4,38.18z"/>
	<path class="st0" d="M392.29,71.56c4.5,0,9.01,0,13.51,0c2.25,0,4.5-0.13,6.73-0.49c3.87-0.61,7.55-1.75,10.96-3.62
	c6.25-3.42,10.55-8.38,12.63-15.04c1.56-5,1.61-10.08,0.33-15.15c-1.18-4.68-3.56-8.7-7.17-12.04c-2.98-2.76-6.48-4.71-10.36-6.04
	c-4.19-1.44-8.52-2.02-12.94-2.04c-7.66-0.03-15.33-0.01-22.99,0c-0.8,0-1.6,0.04-2.39,0.16c-3.32,0.51-5.64,2.27-6.88,5.3
	c-0.47,1.15-0.63,2.37-0.63,3.6c0,22.52,0,45.05,0.01,67.57c0,0.56,0.05,1.12,0.13,1.67c0.73,5.24,5.92,8.49,11.36,7.03
	c3.48-0.93,5.94-3.88,6.26-7.55c0.05-0.59,0.04-1.19,0.04-1.79c0-6.72,0-13.45,0.01-20.18c0-0.41-0.07-0.84,0.11-1.25
	C391.42,71.5,391.86,71.56,392.29,71.56z M390.92,32.72c0-0.1,0.07-0.19,0.13-0.34c0.27-0.02,0.55-0.07,0.83-0.07
	c4.83,0,9.66,0,14.49,0c1.79,0,3.54,0.28,5.22,0.9c3.69,1.35,6.09,3.84,7.08,7.54c0.7,2.63,0.65,5.28-0.18,7.88
	c-1.22,3.82-3.93,6.21-7.85,7.34c-1.47,0.42-2.98,0.62-4.51,0.63c-4.68,0-9.37,0-14.05,0c-0.32,0-0.65-0.02-1.06-0.04
	c-0.05-0.25-0.11-0.38-0.11-0.51C390.9,48.26,390.91,40.49,390.92,32.72z"/>
	<path class="st0" d="M152.81,71.56c4.39-0.01,8.79,0,13.18,0c2.36,0,4.72-0.12,7.05-0.49c4.16-0.67,8.11-1.93,11.71-4.06
	c7.47-4.43,11.72-10.89,12.84-19.26c0.42-3.15,0.25-6.29-0.42-9.41c-0.91-4.27-2.78-8.09-5.74-11.4c-3.26-3.64-7.32-6.12-11.99-7.74
	c-4.18-1.45-8.52-2.03-12.94-2.05c-7.7-0.03-15.4-0.01-23.1,0c-0.76,0-1.52,0.05-2.28,0.15c-3.65,0.45-6.49,2.99-7.31,6.45
	c-0.22,0.93-0.23,1.87-0.23,2.82v64.1c0,1.12-0.01,2.24,0.01,3.36c0.01,0.52,0.01,1.06,0.11,1.57c0.87,4.87,5.01,7.28,8.93,7.23
	c3.56-0.04,7.2-2.2,8.36-6.19c0.29-0.98,0.39-1.99,0.39-3.01c0-6.86,0-13.73,0-20.6c0-0.42,0.02-0.83,0.02-1.27
	C151.93,71.49,152.38,71.56,152.81,71.56z M151.45,32.44c0.18-0.04,0.38-0.1,0.58-0.13c0.18-0.02,0.36-0.01,0.54-0.01
	c4.65,0,9.29,0,13.94,0c1.68,0,3.33,0.18,4.93,0.7c4.61,1.49,7.25,4.56,7.99,9.19c0.32,2,0.21,3.99-0.34,5.93
	c-1.12,4.01-3.81,6.59-7.91,7.81c-1.46,0.44-2.97,0.65-4.51,0.65c-4.72,0.01-9.44,0-14.16,0c-0.32,0-0.64-0.03-1.02-0.05
	C151.35,55.64,151.32,33.68,151.45,32.44z"/>
	<path class="st0" d="M454.04,96.99c5.98,3.9,12.65,5.68,19.85,5.76c1.52-0.11,3.04-0.18,4.56-0.35c4.49-0.48,8.72-1.78,12.69-3.85
	c12.64-6.57,20-19.89,17.54-34.3c-1.17-6.85-4.36-12.73-9.47-17.6c-6.25-5.95-13.85-9.11-22.57-9.75c-4-0.29-7.98,0.03-11.88,1.02
	c-7.9,2-14.43,6.03-19.25,12.42c-5.75,7.61-7.66,16.15-5.93,25.39C441.25,84.76,446.16,91.85,454.04,96.99z M458.5,62.42
	c2.3-5.38,6.47-8.71,12.46-9.7c5.18-0.86,9.89,0.26,13.93,3.58c2.83,2.32,4.57,5.31,5.48,8.76c0.41,1.57,0.57,3.17,0.59,4.62
	c-0.02,3.04-0.58,5.82-1.96,8.38c-2.61,4.87-6.72,7.8-12.36,8.66c-3.15,0.48-6.24,0.18-9.2-0.98c-4.41-1.73-7.47-4.79-9.14-9.07
	C456.46,71.92,456.5,67.11,458.5,62.42z"/>
	<path class="st0" d="M548.12,94.14c0.01,0.59,0.04,1.2,0.16,1.77c0.91,4.45,4.83,6.96,8.88,6.91c3.61-0.04,7.28-2.2,8.38-6.28
	c0.28-1.06,0.36-2.14,0.36-3.23c0-9.53,0-19.06,0-28.59c0-1.09,0.03-2.17,0.29-3.24c1.1-4.5,3.88-7.52,8.52-8.83
	c1.79-0.51,3.63-0.62,5.5-0.35c4.7,0.66,7.91,3.11,9.56,7.41c0.61,1.6,0.78,3.27,0.81,4.96c0.01,0.7,0,1.4,0,2.1
	c0,8.93,0,17.87,0.01,26.8c0,0.8,0.02,1.62,0.19,2.4c0.94,4.43,4.83,6.96,8.91,6.83c3.89-0.12,7.07-2.42,8.13-6.02
	c0.32-1.09,0.42-2.2,0.42-3.33c-0.01-9.95,0-19.9-0.01-29.85c0-1.5-0.06-3.01-0.16-4.51c-0.2-2.88-0.84-5.68-1.96-8.36
	c-2.27-5.44-6.09-9.48-11.68-11.88c-2.72-1.17-5.58-1.78-8.53-1.97c-2.47-0.16-4.93-0.07-7.38,0.35c-4.68,0.79-8.89,2.54-12.55,5.48
	c-0.19,0.15-0.4,0.28-0.7,0.49c-0.15-0.37-0.24-0.59-0.32-0.82c-1.15-3.28-4.39-5.73-8.46-5.55c-3.63,0.16-6.71,2.33-7.88,5.65
	c-0.39,1.11-0.48,2.25-0.48,3.42c0,14.92,0,29.85,0,44.77C548.11,91.82,548.09,92.98,548.12,94.14z"/>
	<path class="st0" d="M258.65,53.45c2.38-0.84,4.86-1.11,7.39-0.96c3.56,0.21,6.72,1.39,9.53,3.48c1.19,0.88,2.23,1.9,3.19,3.01
	c1.03,1.2,2.33,2.01,3.92,2.32c0.96,0.19,1.93,0.28,2.92,0.14c3.16-0.43,5.33-2.08,6.5-4.93c0.49-1.19,0.64-2.43,0.42-3.71
	c-0.23-1.31-0.79-2.47-1.54-3.56c-1.32-1.95-2.94-3.66-4.8-5.13c-5.69-4.52-12.3-6.78-19.6-7.23c-2.58-0.16-5.15-0.02-7.71,0.36
	c-4.8,0.72-9.31,2.22-13.4,4.75c-10.01,6.21-15.24,15.13-15.88,26.56c-0.13,2.38,0.09,4.76,0.55,7.11
	c1.65,8.55,6.09,15.45,13.33,20.61c6.25,4.46,13.35,6.51,21.09,6.55c2.85,0.04,5.74-0.3,8.32-0.87c4.6-1.02,8.79-2.88,12.46-5.76
	c2.39-1.87,4.41-4.06,6.04-6.58c1.2-1.85,1.53-3.83,0.95-5.94c-0.91-3.32-4.38-6.41-9.48-5.49c-1.56,0.28-2.82,1.07-3.9,2.16
	c-0.55,0.56-1.08,1.13-1.66,1.67c-4.57,4.2-9.95,5.91-16.2,4.69c-5.16-1.01-8.97-3.79-11.4-8.31c-2.59-4.8-2.73-11.54-0.4-16.49
	C251.2,57.82,254.31,54.98,258.65,53.45z"/>
	<path class="st0" d="M301.03,94.55c0.05,1.43,0.42,2.78,1.17,4c1.76,2.87,4.41,4.24,7.85,4.26c3.81,0.02,7.35-2.35,8.39-6.24
	c0.3-1.09,0.36-2.21,0.36-3.33c0-26.48,0-52.95,0-79.43c0-0.39,0-0.77-0.01-1.15c-0.05-0.95-0.19-1.88-0.5-2.78
	c-1.19-3.5-4.36-5.55-7.95-5.67c-4.27-0.14-7.86,2.31-8.99,6.23c-0.27,0.92-0.34,1.85-0.34,2.81c0.01,13.41,0,26.83,0,40.24v39.93
	C301.02,93.78,301.01,94.16,301.03,94.55z"/>
	<path class="st0" d="M346.57,61.03c3.59-3.52,7.19-7.04,10.78-10.55c0.74-0.73,1.39-1.52,1.89-2.43c0.96-1.78,1.21-3.65,0.68-5.6
	c-1.05-3.83-5-6.22-9.4-5.49c-1.85,0.31-3.39,1.2-4.68,2.5c-6.93,6.98-13.87,13.96-20.79,20.95c-0.93,0.94-1.76,1.96-2.4,3.11
	c-0.89,1.61-1.17,3.32-0.65,5.08c0.23,0.77,0.55,1.53,0.97,2.22c0.59,0.96,1.24,1.9,1.97,2.77c5.27,6.29,10.57,12.57,15.86,18.85
	c2.11,2.5,4.23,4.99,6.32,7.51c2.34,2.82,5.85,3.41,8.83,2.51c4.76-1.43,6.75-6.62,4.87-10.65c-0.44-0.94-1.05-1.76-1.71-2.55
	c-5.91-7.14-11.82-14.29-17.74-21.44c-0.23-0.27-0.44-0.55-0.71-0.9c0.24-0.27,0.39-0.46,0.57-0.63
	C343.01,64.52,344.79,62.78,346.57,61.03z"/>
	<path class="st0" d="M526.89,102.82c4-0.12,7.34-2.6,8.36-6.34c0.26-0.95,0.35-1.93,0.35-2.91c0-15.86,0-31.72-0.01-47.58
	c0-0.66-0.03-1.33-0.14-1.99c-0.52-3.06-2.22-5.27-5.19-6.52c-1.39-0.59-2.87-0.74-4.37-0.62c-3.81,0.3-6.87,2.73-7.8,6.3
	c-0.25,0.96-0.28,1.94-0.28,2.92v23.63c0,7.88,0,15.76,0,23.63c0,0.77-0.02,1.55,0.12,2.3
	C518.84,100.57,523.03,102.94,526.89,102.82z"/>
	<path class="st0" d="M214.65,102.82c3.37-0.06,7.12-1.97,8.41-6.16c0.3-0.99,0.35-1.99,0.35-3.01c0-7.95,0-15.9,0-23.84
	c0-7.91,0-15.83,0-23.74c0-0.56,0.01-1.12-0.05-1.68c-0.28-2.45-1.4-4.47-3.47-5.95c-1.8-1.29-3.85-1.74-6.06-1.59
	c-3.59,0.24-6.57,2.43-7.67,5.63c-0.4,1.15-0.53,2.32-0.53,3.52c-0.01,3.92,0,7.84,0,11.76c0,11.87,0,23.74,0.01,35.61
	c0,0.9,0.05,1.83,0.25,2.71C206.89,100.57,210.83,102.89,214.65,102.82z"/>
	<path class="st0" d="M213.88,29.45c3.12,0.03,5.37-0.66,7.36-2.06c5.19-3.66,5.88-10.28,1.94-14.8c-4.28-4.9-11.72-4.93-16.18-1.1
	c-4.28,3.68-4.82,9.89-1.17,14.08C208.08,28.16,211.03,29.4,213.88,29.45z"/>
	<path class="st0" d="M526.67,29.46c2.95,0.04,5.45-1.02,7.32-2.52c3.55-2.84,4.86-7.44,3.11-11.47c-1.75-4.03-4.98-6.27-9.5-6.66
	c-2.98-0.26-5.68,0.54-8.03,2.34c-5.21,4.01-5.46,11.69-0.05,15.89C521.6,28.66,524,29.44,526.67,29.46z"/>
	<path class="st0" d="M5.92,74.56c2.78,5.19,6.45,9.72,10.81,13.75c3.96,3.66,8.36,6.72,13.29,9.06c7.14,3.38,14.71,4.97,22.62,4.99
	c16.02,0.05,32.04,0.01,48.05,0.01c0.22,0,0.44,0,0.65,0c2.2-0.07,4.05-1.48,4.59-3.54c0.14-0.53,0.17-1.11,0.17-1.66
	c0-11.95-0.02-23.89-0.03-35.83c0-3.19,0.02-6.38,0-9.56c-0.02-3.19-0.24-6.36-0.79-9.52c-0.88-5.05-2.53-9.84-4.99-14.38
	c-3.36-6.19-7.92-11.47-13.4-16.01C78.46,4.86,68.66,0.92,57.55,0.15c-4.39-0.3-8.78-0.16-13.14,0.52
	C38.76,1.55,33.42,3.25,28.4,5.89c-5.42,2.84-10.11,6.55-14.27,10.93c-4.18,4.4-7.56,9.31-9.94,14.83
	C2.05,36.6,0.81,41.76,0.44,47.12C0.4,47.71,0.38,48.31,0,48.82v4.84c0.38,0.43,0.4,0.97,0.42,1.49c0.11,1.86,0.36,3.69,0.68,5.52
	C1.97,65.54,3.57,70.17,5.92,74.56z M28.74,41.33c2.44-5.74,8.25-12.07,15.93-14.48c2.19-0.69,4.42-1.12,6.72-1.22
	c0.65-0.03,1.31-0.07,1.96-0.1c7.53,0.02,13.84,2.76,19.05,7.93c2.77,2.75,4.9,5.89,6.18,9.54c0.79,2.27,1.22,4.6,1.32,7
	c0.12,3-0.18,5.94-1.07,8.82c-1.31,4.23-3.72,7.8-7.01,10.83c-3.65,3.37-7.9,5.67-12.88,6.64c-2.83,0.55-5.68,0.67-8.56,0.39
	c-2.69-0.26-5.29-0.85-7.78-1.88c-7.82-3.24-13.66-10.13-15.29-18.2C26.25,51.39,26.64,46.28,28.74,41.33z"/>
	<path class="st1" d="M65.19,51.22c0.08-6.45-5.43-11.64-12.01-11.65c-6.2-0.01-12.04,4.76-12.05,11.63
	c-0.01,6.35,5.24,11.57,11.97,11.59C60.26,62.82,65.26,57.18,65.19,51.22z"/>
</svg>