<?xml version="1.0" encoding="utf-8"?>
<!-- Generator: Adobe Illustrator 15.0.0, SVG Export Plug-In . SVG Version: 6.00 Build 0)  -->
<!DOCTYPE svg PUBLIC "-//W3C//DTD SVG 1.1//EN" "http://www.w3.org/Graphics/SVG/1.1/DTD/svg11.dtd">
<svg version="1.1" id="Layer_1" xmlns="http://www.w3.org/2000/svg" xmlns:xlink="http://www.w3.org/1999/xlink" x="0px" y="0px"
	 width="484px" height="368px" viewBox="-6.25 -73.479 484 368" enable-background="new -6.25 -73.479 484 368"
	 xml:space="preserve">
<path fill="#006F87" d="M369.391,184.042c1.469,0.369,2.939,0.74,4.42,1.109c-0.011,1.96-0.021,3.91-0.041,5.87
	C370.041,190.132,367.689,188.003,369.391,184.042 M349.67,183.742c1.398,1.07,2.68,2.29,3.979,3.5
	c1.17-1.279,2.352-2.56,3.58-3.779c0.201,3.449-1.459,6.479-3.41,9.181C352.32,189.933,347.859,187.082,349.67,183.742
	 M398.141,174.232c2.25,1.1,6.93,1.45,5.84,5.021C400.661,179.612,398.871,177.143,398.141,174.232 M400.081,172.643
	c2.649,0.12,5.351,0.34,7.851,1.31C407.72,179.042,401.391,175.453,400.081,172.643 M359.32,181.532
	c-0.34-3.55,1.289-6.688,3.271-9.479c2.341,2.77,4.8,5.778,4.62,9.659c-1.49-1.409-2.92-2.881-4.311-4.381
	C361.73,178.763,360.541,180.162,359.32,181.532 M316.05,172.362c1.7,0.091,3.39,0.2,5.091,0.33c2.399,6.03-4.131,6.86-8.511,6.271
	c-0.021-0.529-0.08-1.569-0.11-2.101c-2.279-0.069-3.76-1.409-4.26-3.63c3.33-0.609,6.65-0.109,9.49,1.8
	c-0.29,0.99-0.561,1.98-0.83,2.98c0.859-0.98,1.729-1.96,2.6-2.94C318.35,174.183,317.189,173.282,316.05,172.362 M355.34,168.893
	c1.96-0.021,3.91,0,5.88,0.05C359.22,172.143,356.99,172.603,355.34,168.893 M380.411,161.272c1.369-0.49,2.75-0.97,4.14-1.44
	c0.03,1.961,0.07,3.932,0.11,5.9c-0.881-0.13-1.75-0.25-2.62-0.37c-1.261,1.96-2.53,3.92-3.771,5.892
	c5,1.55,10.201,2.14,15.352,2.979c0.08,0.43,0.25,1.271,0.34,1.7c-5.859,0.09-11.602-1.36-17.17-3.021
	c-4.67,6.601-9.28,13.239-14.17,19.67c-3.16-5.119-5.9-10.479-9.012-15.631c-2.148,3.801-6.969,7.19-5.688,12.051
	c-1.78,0.609-3.54,1.221-5.312,1.84c0-1.899,0-3.789,0.012-5.68c0.689-0.131,2.068-0.381,2.76-0.511
	c2.71-4.271,5.439-8.53,8.399-12.63c3.2,5.15,5.881,10.6,9.021,15.79C368.791,179.082,376.42,171.173,380.411,161.272
	 M331.939,159.532c2.091,0.91,4.602,1.69,5.121,4.25c2.189,6.58,9.34,10.7,10.01,17.78c-3.51-1.84-5.189-5.62-7.409-8.689
	c-5.91,1.631-12.12,3.959-18.28,2.221c5.471-1.852,11.301-2.141,16.811-3.852c-1.26-1.97-2.521-3.92-3.779-5.88
	c-0.881,0.11-1.75,0.22-2.61,0.341C331.831,163.643,331.871,161.582,331.939,159.532 M347.541,170.282
	c3.67-4.02,7.47-7.95,10.79-12.278c3.12,4.47,7.01,8.31,10.688,12.31C362.21,166.893,354.359,166.912,347.541,170.282
	 M329.07,148.893c3.149,0.8,6.83,1.188,8.92,4.021c-3.109-0.529-6.079-1.66-9.17-2.271C328.88,150.203,329,149.332,329.07,148.893
	 M363.59,146.862c3.471,3.83,7.91,6.8,10.67,11.24c-4.05-1.399-6.869-4.681-10.06-7.34c1.55,4.909,6.59,7.239,9.039,11.59
	C366.201,161.542,360.51,153.652,363.59,146.862 M342.22,158.103c2.761-4.42,7.171-7.41,10.62-11.24
	c3.149,6.75-2.58,14.721-9.63,15.45c2.521-4.31,7.49-6.72,9.09-11.62C349.1,153.362,346.291,156.712,342.22,158.103 M308.47,167.353
	c0.97,2.6,4.04,2.939,6.311,3.74c-1.649-1.15-3.351-2.24-5.011-3.352c4.471-3.648,10.182,3.562,13.221-2.488
	c-1.971-2.842-3.409-6.961-7.279-7.551C310.641,156.832,306.311,162.742,308.47,167.353 M304.84,144.572
	c2.35,2.24,4.77,4.41,7.301,6.45c-2.021,2.49-3.791,5.17-5.371,7.96c5.432-5,15.121-4.199,16.771,3.96c2-4.149,3.67-9.08,8-11.38
	c0.439,0.471,1.311,1.42,1.739,1.9c1.29,0.148,2.591,0.3,3.891,0.459c-7.641,3.699-12.47,10.939-14.72,18.931
	c-1.811-0.51-3.62-1.01-5.421-1.479c-7.819,4.301-12.909-4.24-15.109-10.511C300.359,155.263,303.371,149.853,304.84,144.572
	 M376.17,143.822c3.729,0.432,7.38,1.58,10.311,4.021c-1.58,0.369-3.141,0.729-4.711,1.109c-2.51,2.391-4.5,0.76-5.97-1.771
	c1.22,0.21,2.45,0.438,3.681,0.68C378.35,146.542,377.24,145.192,376.17,143.822 M330.01,147.933c2.811-2.71,6.59-3.75,10.391-4.061
	c-1.141,1.351-2.291,2.689-3.479,4c1.24-0.229,2.47-0.449,3.72-0.66c-1.51,2.529-3.479,4.199-5.959,1.689
	C333.121,148.572,331.561,148.253,330.01,147.933 M353.71,141.873c1.858,2.289,3.34,4.869,4.66,7.51
	c1.06-2.721,2.38-5.359,4.369-7.521c0.37,4.181-1.319,8.04-2.079,12.062c2.779,7.1,9.18,11.709,14.619,16.67
	c-7.381-0.33-11.01-8.102-15.029-13.221c-1.41-2.08-4.04-0.729-4.932,1.09c-3.129,5.041-6.969,9.971-12.459,12.551
	c-0.301-0.24-0.891-0.73-1.181-0.971c5.37-4.67,11.39-9.279,14.101-16.109C355,149.923,353.359,146.042,353.71,141.873
	 M368.34,140.603c3.34,0.99,6.26,3.02,8.04,6.061C372.871,145.953,370.3,143.442,368.34,140.603 M407.189,140.593
	c1.621-1.021,4.541,0.199,3.762,2.398c-1.91,3.512-5.561,7.67-9.98,6.801C399.359,145.703,403.939,142.232,407.189,140.593
	 M305.041,140.643c5.8-1.479,11.029,4.01,10.93,9.63C310.561,150.022,306.07,145.912,305.041,140.643 M362.161,138.792
	c3.56,2.271,7.09,4.641,10.18,7.539c2.181,1.592,4.17,3.432,5.931,5.49c3.229-0.99,6.799-3.77,10.149-1.68
	c-2.61,0.82-5.239,1.51-7.88,2.199c0.76,0.5,1.52,1.011,2.3,1.521c0.49-0.521,1.47-1.55,1.96-2.069c4.7,1.761,6.03,7.189,8.11,11.25
	c1.34-8.359,11.358-9.039,16.75-4.069c-1.54-2.892-3.41-5.591-5.74-7.9c2.74-1.95,5.29-4.149,7.71-6.479
	c1.479,5.46,4.721,11.159,2.689,16.909c-2.359,5.771-6.699,13.641-14.189,10.261c2.35-1.04,5.12-1.45,7.1-3.181
	c2.621-3.319,0.98-8.66-2.81-10.311c-5.8-3.21-13.739,5.75-8.28,10.471c3.351-1.701,7.74-3.921,10.57-0.07
	c-2.682,0.869-5.37,1.671-8.09,2.359c0.79,1.711-0.2,3.09-1.381,4.29c0.75,1.341,1.49,2.69,2.229,4.062
	c-3.43-0.432-5.25-2.53-4.659-5.932c-3.311-7.898-7.49-15.738-15.511-19.729c-2.312,0.84-4.75,1.22-7.17,0.729
	c1.261-0.789,2.55-1.568,3.84-2.318c-1.479-3.32-4.86-4.461-8.159-5.131C363.97,146.282,363.21,141.882,362.161,138.792
	 M370.439,137.572c3.341,0.48,5.61,3.09,7.58,5.59C375.05,142.242,369.72,141.992,370.439,137.572 M338.38,142.902
	c2.05-2.26,4.46-4.16,7.101-5.699c0.359,1.609,0.729,3.229,1.101,4.851c-0.16,0.569-0.479,1.7-0.642,2.27
	c2.83-1.85,5.58-3.81,8.392-5.7c-1.03,3.271-1.92,7.9-5.979,8.58c-3.17,0.61-6.461,1.66-7.83,4.892
	c1.279,0.729,2.561,1.47,3.84,2.22c-1.979,0.58-5.239,1.609-5.851-1.32c0.36-3.789,4.351-5.51,7.011-7.619
	c-1.761,0.301-3.511,0.619-5.261,0.931c1.15-1.46,2.32-2.892,3.5-4.32C341.96,142.303,340.17,142.623,338.38,142.902
	 M366.88,141.412c-1.771-2.67-1.38-5.85-0.21-8.658C369.641,135.292,371.42,139.473,366.88,141.412 M349.59,141.453
	c-4.84-1.58-2.71-6.359,0.229-8.729C350.85,135.593,351.621,138.803,349.59,141.453 M357.871,131.712
	c4.6,3.561,3.061,10.399,0.659,14.841C354.84,142.522,354.77,136.103,357.871,131.712 M60.95,132.022c4.6-2.04,6.77,4.101,7.1,7.62
	c0.62,8.229,1.79,17.62-2.79,24.939c-4.229,4.08-7.72-2.75-7.89-6.479C56.35,149.612,54.78,138.813,60.95,132.022 M29.52,150.322
	c-1.06-6.38-0.54-12.92-0.12-19.34c7.53,3.35,7.67,13.43,5.49,20.15C33.85,154.442,30.06,153.263,29.52,150.322 M383.161,133.063
	c0.729-2.3,1.56-4.569,2.579-6.76c0.301,4.989-1.131,9.92-4.199,13.89c-0.99-3.229-1.761-6.689-0.71-10.01
	C382.609,129.843,382.51,131.962,383.161,133.063 M330.689,126.282c1.07,2.3,1.98,4.671,2.86,7.05c0.261-1,0.771-3.01,1.021-4.01
	c2.359,3.29,1.551,7.32,0.311,10.881C331.871,136.203,330.439,131.272,330.689,126.282 M362.98,137.712
	c-2.791-3.689-4.689-9.189-0.601-12.75C365.661,128.703,366.189,133.753,362.98,137.712 M353.041,137.643
	c-2.71-4.271-2.28-9.5,1.729-12.8C357.51,129.022,356.74,134.343,353.041,137.643 M390.32,134.553c0.359-3.37,0.641-6.78,1.779-10
	c1.08,5.64,1.641,12.041-1.99,16.94c-1.818-4.939-2.85-10.189-2.408-15.461C388.71,128.822,389.47,131.703,390.32,134.553
	 M367.72,124.322c3.66,2.52,3.931,7.33,1.21,10.682C366.939,131.742,366.451,127.933,367.72,124.322 M347.689,134.082
	c-3.738-1.209-1.988-7.879,1.03-9.77C349.63,127.553,350.22,131.373,347.689,134.082 M393.84,120.272
	c2.18,4.28,1.86,9.45,4.71,13.44c-0.14-3.852-1.08-7.582-1.7-11.352c4.84,4.98,6.62,12.24,4.87,18.94
	C393.9,137.572,392.85,127.912,393.84,120.272 M317.82,133.723c2.74-4.142,2.58-9.341,4.811-13.7c0.91,7.67-0.199,17.34-7.859,21.28
	c-1.681-6.65-0.211-13.99,4.739-18.91C318.84,126.152,317.93,129.882,317.82,133.723 M301.791,139.132
	c0.54-7.971,4.699-16.949,12.52-19.959c-2.709,4.34-6.879,7.88-7.97,13.1c4.13-2.71,5.681-8.109,10.33-10.08
	C313.78,129.292,309.67,136.803,301.791,139.132 M401.65,118.703c7.959,3.221,12.539,12.16,13,20.44
	c-7.859-2.37-11.939-9.88-14.931-16.931c4.73,1.841,6.23,7.341,10.37,10.031C409,126.772,404.5,123.203,401.65,118.703
	 M357.98,117.263c3.459,3.23,3.41,7.84,0.039,11.09C355.23,124.914,355.28,120.751,357.98,117.263 M370.73,126.563
	c-2.689-3.36-1.729-7.931,1.029-10.899C373.47,119.091,374.72,124.152,370.73,126.563 M364.141,117.143
	c3.59-1.47,5.469,8.771,0.68,9.71C361.451,124.862,361.951,119.853,364.141,117.143 M351.1,127.683
	c-2.59-3.29-3.74-8.76,0.65-11.141C355.13,119.542,354.42,124.921,351.1,127.683 M345.701,127.053
	c-3.29-3.08-3.102-7.671-1.021-11.38C347.891,118.802,347.97,123.373,345.701,127.053 M327.621,127.563
	c-3.271-3.14-5.801-10.33-0.881-12.899c4.41,1.949,2.061,7.39,1.74,11.02c0.939,5.38-0.24,10.82-2.189,15.84
	c-3.511-4.96-3.08-11.33-1.98-16.99c1.17,3.26,1.41,6.73,1.95,10.131C326.951,132.343,327.359,129.962,327.621,127.563
	 M405.28,113.732c10.12,1.7,18.359,11.811,19.87,21.811c-9.399-1.569-14.199-10.76-18.989-17.959
	c4.021,2.739,7.46,6.319,11.909,8.41C415.109,120.612,408.92,118.494,405.28,113.732 M391.48,113.322
	c5.05,0.58,8.899,4.29,10.42,9.02C396.65,122.032,392.26,118.683,391.48,113.322 M379.18,129.973c1.25-5.89,2.17-12.42,6.721-16.81
	C387.34,119.433,386.32,127.782,379.18,129.973 M330.57,113.192c4.521,4.41,5.341,10.92,6.971,16.72
	C330.17,128.042,329.09,119.501,330.57,113.192 M413.32,111.913c9.25,2.18,19.801,6.79,21.91,17.16
	c-9.439-0.409-16.42-7.7-22.149-14.43c3.75,1.93,7.271,4.33,11.3,5.67C421.82,116.203,417.161,114.493,413.32,111.913
	 M281.22,129.053c2.14-10.351,12.671-14.99,21.94-17.13c-3.842,2.56-8.521,4.22-11.03,8.36c4.979-1.49,9.05-4.8,13.39-7.51
	c-0.68,1.08-1.369,2.15-2.06,3.23c2.47-1.01,5.029-1.811,7.67-2.271c-3.59,4.8-9.812,6.88-12.75,12.271
	c4.46-2.08,7.88-5.711,11.938-8.42c-4.818,7.17-9.568,16.41-19,17.91c0.461-8.051,6.65-13.44,11.621-19.011
	C296.141,121.362,290.46,129.093,281.22,129.053 M338.311,110.632c1.92,0,4.289,0.09,4.641,2.5c0.01,4.81-3.04,8.98-4.99,13.22
	c-1.352-3.101-2.4-6.319-3.12-9.62C336.161,114.802,337.28,112.732,338.311,110.632 M375.689,109.302
	c6.371,3.8,6.67,11.289,2.771,17.029C376.09,121.042,370.92,114.772,375.689,109.302 M398.109,108.482
	c4.762-1.66,9.642,0.02,12.892,3.75c-2.569,0.6-5.181,0.97-7.812,1.13c1.131,1.681,2.17,3.4,3.19,5.16
	c-3.54,0.181-6.68-1.38-9.351-3.53c1.029-1.22,2.101-2.42,3.181-3.6C399.51,110.422,398.791,109.442,398.109,108.482
	 M367.82,118.921c-2.811-3.819-2.869-8.469,0.729-11.799c1.3,1.67,2.591,3.36,3.89,5.04
	C371.07,114.532,369.55,116.802,367.82,118.921 M360.891,119.552c-2.451-4.221-2.57-9.45,1.76-12.5
	C364.78,111.282,364.53,116.263,360.891,119.552 M353.8,107.063c4.32,3.03,4.22,8.26,1.771,12.479
	C351.911,116.282,351.68,111.282,353.8,107.063 M344.02,112.172c1.28-1.67,2.562-3.36,3.852-5.03c3.71,3.28,3.59,7.98,0.75,11.8
	C346.911,116.802,345.4,114.532,344.02,112.172 M306,112.013c2.68-3.88,7.52-4.65,11.891-4.07c-0.461,1.08-0.91,2.17-1.36,3.25
	c0.811,1.44,1.53,2.93,2.149,4.471c2.041-0.881,4.12-1.681,6.23-2.371c-0.421,5.31-4.881,8.38-9.82,9.041
	c0.45-1.681,0.95-3.33,1.46-4.99c-2.13,0.439-4.271,0.82-6.42,1.16c0.99-1.76,2.03-3.48,3.12-5.17
	C310.77,113.342,308.22,113.263,306,112.013 M417.4,107.103c9.96,0.32,21.54,3.1,26.46,12.76c-10.771,0.43-20.449-5.31-29.72-10.04
	c5.459,0.33,10.399,3.14,15.899,3.24C426.09,110.542,421.59,109.132,417.4,107.103 M272.51,119.723
	c5.19-9.41,16.58-12.38,26.59-12.62c-4.209,2.07-8.74,3.45-12.729,5.96c5.51-0.09,10.47-2.9,15.939-3.23
	C293,114.493,283.331,120.462,272.51,119.723 M401.9,102.583c5.681-0.96,12.949,0.25,14.649,6.72
	C410.72,110.212,404.57,108.143,401.9,102.583 M355.13,102.552c2.05,0.15,4.271-0.12,6.12,0.97c0.55,2.73-1.67,4.92-2.8,7.17
	C356.4,108.422,355.061,105.663,355.13,102.552 M299.97,109.292c1.671-6.47,8.9-7.64,14.591-6.73
	C311.93,108.132,305.77,110.212,299.97,109.292 M374.65,101.933c1.721-0.05,3.449-0.1,5.181-0.13c-1.32,3.56-3.2,7.03-6.642,8.94
	c0.61-1.4,1.271-2.77,1.961-4.13C374.98,105.052,374.811,103.482,374.65,101.933 M336.63,101.813c1.729,0.02,3.47,0.06,5.21,0.11
	c-0.23,1.73-0.449,3.45-0.67,5.18c0.74,1.19,1.46,2.4,2.16,3.63C339.689,109.013,337.98,105.353,336.63,101.813 M419.1,101.223
	c10.45-0.93,21.96-0.47,30.931,5.64c-9.659,2.35-19.641,0.79-29.319-0.59c-2.8-0.29-5.37-1.52-7.54-3.27
	c6.37-0.88,12.609,2.26,18.95,0.68C427.85,102.493,423.43,102.112,419.1,101.223 M266.47,106.802c8.98-6.02,20.431-6.52,30.86-5.58
	c-4.33,0.88-8.75,1.28-13.012,2.46c6.342,1.59,12.592-1.55,18.972-0.69c-3.99,3.59-9.58,3.52-14.59,4.23
	C281.32,108.152,273.75,108.703,266.47,106.802 M370.8,98.552c4.431,1.87,3.439,7.29,1.86,10.82
	C368.391,108.433,368.9,101.692,370.8,98.552 M364.9,109.743c-2.949-3.83-3.5-8.87,0.869-11.9
	C369.041,101.603,369.18,106.712,364.9,109.743 M351.53,109.772c-4.14-3.12-4.079-8.14-0.88-11.95
	C355.081,100.833,354.411,105.922,351.53,109.772 M344.77,98.712c3.7,1.62,2.99,10.43-0.97,10.55
	C342.201,105.893,341.46,101.342,344.77,98.712 M404.911,100.152c3.06-5.66,10.5-4.47,14.688-0.89
	C415.59,102.893,409.291,103.482,404.911,100.152 M296.85,99.282c4.181-3.63,11.631-4.76,14.711,0.87
	C307.161,103.473,300.88,102.893,296.85,99.282 M357.77,102.263c-3.75-3.74-3.119-11.6,3.61-8.72
	C361.371,96.882,360.47,100.112,357.77,102.263 M416.09,96.112c11.57-5.15,24.939-6.4,37.391-4.29c-9.75,7.45-22.87,9-34.649,6.74
	c4.989-1.96,10.58-1.34,15.55-3.42C428.25,94.063,422.201,95.882,416.09,96.112 M262.9,91.842c12.479-2.14,25.899-0.92,37.49,4.31
	c-6.439-0.45-12.791-1.83-19.271-1.64c-0.03,0.25-0.091,0.75-0.12,0.99c5.62,1.15,11.38,1.46,16.989,2.66
	C286.23,101.302,272.78,99.103,262.9,91.842 M402.97,95.302c1.021-6.9,8.521-5.81,13.7-5.44
	C414.63,95.612,408.13,96.083,402.97,95.302 M361.34,89.473c3.43,2.56,5.54,7.47,1.311,10.49
	C362.02,96.493,361.49,92.993,361.34,89.473 M353.791,99.942c-4.221-3.02-2.109-7.9,1.311-10.48
	C355.03,92.993,354.47,96.482,353.791,99.942 M300.24,89.933c5.07-0.76,12.199-1.2,13.261,5.34
	C308.8,95.893,301.24,95.942,300.24,89.933 M367.371,88.632c3.449,4.29,9.09,9.64,13.689,3.51c-0.16,3.14,0,8.22-4.32,8.41
	C370.98,99.922,368.891,93.373,367.371,88.632 M365.52,88.493c1.59,3.69,6.36,8.24,2.801,12.06
	C366.451,96.813,364.859,92.763,365.52,88.493 M348.13,100.563c-3.54-3.82,1.17-8.37,2.74-12.07
	C351.65,92.763,350,96.822,348.13,100.563 M335.439,92.112c4.53,6.2,10.17,0.79,13.642-3.44c-1.521,4.73-3.61,11.22-9.36,11.88
	C335.47,100.272,335.47,95.282,335.439,92.112 M369.141,85.902c2.59,1.83,5.199,3.63,7.719,5.57
	C372.47,94.583,369.391,90.013,369.141,85.902 M339.311,91.572c2.689-1.84,5.319-3.75,7.97-5.65
	C347.03,90.393,343.911,94.172,339.311,91.572 M357.74,84.532c3.221,1.38,2.971,5.65,0.961,7.97
	C355.359,91.092,355.93,86.942,357.74,84.532 M402.791,87.973c4.01-4.62,9.66-7.31,15.43-9.02
	C416.71,85.902,409.92,91.522,402.791,87.973 M298.24,78.962c5.761,1.61,11.04,4.6,15.54,8.53
	C306.859,91.973,299.71,85.862,298.24,78.962 M413.74,89.103c12.149-6.91,26.261-11.19,40.32-11.24
	c-8.78,12.49-25.681,12.57-39.109,16.23c4.568-6.48,14.039-4.4,20.039-9.07C427.57,84.712,421.15,89.692,413.74,89.103
	 M362.09,77.362c2.68,3.64,3.58,8.16,2.801,12.6C359.939,87.382,359.17,81.842,362.09,77.362 M353.93,77.292
	c3.54,4.26,2.641,10.07-2.369,12.68C350.76,85.563,351.9,81.203,353.93,77.292 M262.4,77.862c14.051,0.03,28.141,4.39,40.311,11.21
	c-7.42,0.65-13.852-4.4-21.279-4.04c6.01,4.64,15.489,2.56,20.06,9.04C288.061,90.422,271.189,90.322,262.4,77.862 M365.98,76.393
	c3.41,2.5,3.061,6.9,2.739,10.64C365.061,84.623,364.9,80.243,365.98,76.393 M347.75,87.002c-0.352-3.74-0.689-8.13,2.739-10.6
	C351.541,80.243,351.34,84.563,347.75,87.002 M312.71,74.643c3.39,3.74,6.74,7.57,10.84,10.57c1.95,1.67,5.04,3.61,4.11,6.64
	c-0.561,3.93-4.33,7.78-2.602,11.73c4.36,3.93,12.211-1.39,14.521,5.51c-1.051,0.59-2.092,1.18-3.13,1.77
	c-0.271,1.46-0.54,2.91-0.802,4.381c-1.398-0.821-2.789-1.631-4.18-2.451c-1.48,0.42-2.96,0.84-4.46,1.15
	c-0.55-0.85-1.09-1.7-1.61-2.54c-2.22,1.18-4.58,2.1-7.068,2.46c0.29-2.23,0.609-4.44,0.949-6.66c-1.989,0-3.979,0-5.961,0
	c3.352-4.19,0.791-7.3-3.209-9.51c1.57-0.9,3.141-1.77,4.729-2.63c-1.229-2.08-2.42-4.18-3.54-6.31c2.189,0.01,4.381,0.06,6.57,0.13
	C314.76,84.752,312.77,79.862,312.71,74.643 M390.201,87.493c4.988-4.03,9.869-8.23,13.5-13.58c0.18,5.57-1.75,11-5.69,14.98
	c2.36-0.08,4.72-0.11,7.101-0.09c-1.109,2.1-2.271,4.18-3.471,6.23c1.62,0.9,3.23,1.82,4.84,2.77c-1.869,1.42-3.76,2.81-5.68,4.16
	c0.86,1.73,1.7,3.46,2.53,5.21c-2.011,0.03-4,0.04-5.99,0.03c0.12,2.3,0.29,4.66-0.521,6.87c-2.131-0.76-4.101-1.87-6.069-2.92
	c-0.33,1.18-0.649,2.37-0.971,3.57c0.631,0.33,1.891,0.979,2.511,1.31c-0.32,3.45,0.898,9.461-3.551,10.45
	c-4.029-4.31,2.07-11.31-3.311-14.15c-1.51,0.99-3.02,1.96-4.539,2.92c-0.311-1.47-0.61-2.931-0.91-4.391
	c-1.041-0.59-2.069-1.18-3.101-1.76c2.261-6.96,10.149-1.56,14.49-5.52C393.92,98.322,385.391,92.362,390.201,87.493 M370.25,73.712
	c1.77-2.29,4.04-4.11,6.79-5.07c-1.04,1.5-2.13,2.96-3.222,4.41c0.44-0.06,1.33-0.2,1.771-0.27c-1.54,3.08-2.939,6.24-4.351,9.38
	c-0.39-1.65-0.761-3.28-1.13-4.92c0.931-1.07,1.859-2.14,2.801-3.2C372.25,73.962,370.92,73.792,370.25,73.712 M366.55,76.092
	c0.64-3.36,1.91-7.15,5.9-7.59C370.951,71.362,368.911,73.902,366.55,76.092 M343.9,68.572c3.729,0.39,5.42,3.54,6.021,6.87
	C347.411,73.643,345.32,71.313,343.9,68.572 M402.49,85.822c1.721-7.19,3.271-16.31,11.591-18.63
	C415.5,75.422,409.59,82.583,402.49,85.822 M363.6,77.462c-0.539-3.97,1.102-7.69,4.521-9.81
	C367.25,71.183,365.689,74.502,363.6,77.462 M348.331,67.663c3.43,2.12,5.06,5.86,4.55,9.84
	C350.82,74.502,349.25,71.183,348.331,67.663 M302.55,66.902c7.95,2.94,9.83,11.58,11.439,18.93
	C306.78,82.583,300.8,75.212,302.55,66.902 M184.94,62.752c5.68-0.89,9.76,3,9.53,8.69c-3.29,0.05-6.58,0.05-9.87,0
	C184.69,68.542,184.81,65.643,184.94,62.752 M376.92,70.013c3.37-3,6.77-6.13,10.91-8.05c3.398-0.05,3.061,3.91,3.33,6.27
	c-3.352-0.03-6.71-0.07-10.051-0.15c1.649,2,2.721,4.35,3.061,6.94C381.72,73.393,379.331,71.683,376.92,70.013 M329.121,65.192
	C328.24,69.183,333.109,64.313,329.121,65.192 M325.53,63.143c3.351-2.62,6.53,1.11,9.229,2.85c3.561,3,8.811,3.51,11.391,7.72
	c-0.59,0.03-1.75,0.1-2.33,0.13c2.221,2.33,2.57,5.38,1.71,8.4c-1.659-3.1-3.091-6.31-4.739-9.41c0.6-0.09,1.79-0.25,2.391-0.33
	c-3.711-3.78-7.591,0.4-10.94,2.46c0.489-2.54,1.551-4.91,3.101-6.98c-3.04,0.17-6.09,0.29-9.119,0.59
	C325.85,66.782,325.359,64.982,325.53,63.143 M76.01,62.203c3.82-1.57,6.521,3.01,7.1,6.2c1.38,8.25,1.96,17.4-1.95,25.07
	c-1.21,2.88-5.83,3.18-7.19,0.28c-3.71-6.19-3.24-13.77-2.84-20.69C71.62,69.163,72.22,64.313,76.01,62.203 M382.74,61.183
	C386.67,60.143,381.92,65.232,382.74,61.183 M376.35,63.172C376.55,67.683,380.73,61.382,376.35,63.172 M364.43,60.623
	c5.98,0.55,12,0.67,17.99,0.17c-0.939,5.25-5.45,7.42-10.37,7.56c-5.88-5.41-8.04,4.33-12.96,6.01c0.63-2.47,2.141-4.5,4.149-6.03
	c-0.55-0.41-1.101-0.83-1.63-1.23c1.221-0.71,2.459-1.41,3.699-2.11C365,63.542,364.71,62.072,364.43,60.623 M338.02,63.163
	C337.74,68.322,342.92,61.123,338.02,63.163 M334.02,60.752c6.041,0.55,12.11,0.49,18.142-0.17c-0.37,1.47-0.729,2.95-1.101,4.42
	c1.299,0.66,2.601,1.33,3.909,2.01c-0.61,0.46-1.21,0.93-1.81,1.4c2.818,2.74,5.71,5.47,8.04,8.65
	c-0.591,2.14-1.972,3.92-3.222,5.71c-1.729-2.57-2.8-5.53-1.739-8.59c-3.421-2.19-5.199-9.27-10.13-6.81
	C340.871,69.692,334.911,66.393,334.02,60.752 M332.78,61.282C336.121,61.473,331.21,64.232,332.78,61.282 M375.51,59.203
	c1.221-0.79,3.24-0.76,4.44,0.09C379.689,60.933,375.77,60.813,375.51,59.203 M337.43,59.252c0.811-0.95,2.601-0.98,3.45-0.04
	C340.99,60.822,337.28,60.922,337.43,59.252 M395.75,57.532C399.75,56.712,394.92,61.522,395.75,57.532 M320.1,57.123
	c2.141,0.42,0.602,3.43-1.13,2.84C316.891,59.513,318.42,56.612,320.1,57.123 M420.121,81.282c6.51-2.56,12.699-6.52,16.84-12.26
	C430.57,71.873,424.96,76.282,420.121,81.282 M427.05,71.342c5.939-5.74,11.891-11.7,19.4-15.38c0.18,5.18-0.07,10.96-3.86,14.94
	c-6.979,7.22-16.21,12.19-26.04,14.23c0.761-1.11,1.55-2.2,2.32-3.3C419.161,76.882,423.951,74.493,427.05,71.342 M269.891,56.063
	c6.5,3.04,11.969,7.75,16.949,12.84c3.82,4.05,9.051,6.98,11.301,12.32c-6.61-3.45-11.561-9.46-18.601-12.17
	c4.89,7.73,14.3,9.98,20.76,15.87c-9.85-1.43-18.92-6.63-25.979-13.51C270.18,67.453,269.859,61.422,269.891,56.063 M360.34,54.982
	c3.62,0.44,7.189,1.92,8.891,5.39C365.52,60.072,361.9,58.583,360.34,54.982 M347.291,60.382c1.6-3.53,5.199-4.95,8.818-5.38
	C354.52,58.552,350.96,60.052,347.291,60.382 M378.76,58.282c-0.1-2.91,1.53-5.46,4.53-5.91
	C382.49,54.763,381.57,57.652,378.76,58.282 M372.3,52.252c2.851,0.69,4.511,3.12,4.39,6.01
	C373.859,57.583,373.01,54.672,372.3,52.252 M339.68,58.192c-0.189-2.98,1.641-5.15,4.49-5.85
	C343.189,54.362,342.67,58.583,339.68,58.192 M333.291,52.243c2.979,0.77,4.6,3.16,4.54,6.19
	C334.65,58.223,334.22,54.572,333.291,52.243 M376.9,52.433C382.561,52.103,374.84,57.842,376.9,52.433 M353.09,53.013
	c3.32-0.73,6.729-0.77,10.09-0.22c-1.8,1.36-3.619,2.68-5.41,4.04c-0.199-0.47-0.608-1.4-0.81-1.87
	C355.661,54.322,354.359,53.672,353.09,53.013 M337.891,52.422C343.55,52.103,335.831,57.833,337.891,52.422 M393.27,64.362
	c-1.648-4.44-2.68-13.28,2.65-14.6C395.081,54.632,394.15,59.493,393.27,64.362 M320.541,49.772c4.97,1.28,4.66,9.64,2.59,13.78
	C322.061,59.002,321.109,54.413,320.541,49.772 M329.07,58.763c-4.211-3.56,0.039-8.64,2.949-11.46
	C332.02,51.322,330.581,55.103,329.07,58.763 M384.561,46.732c2.659,3.45,6.869,8.39,2.84,12.43
	C385.951,55.152,384.23,51.092,384.561,46.732 M377.061,47.063c2.299-1.82,3.689,3.44,0.659,4.24
	C376.09,50.092,375.03,48.513,377.061,47.063 M338.73,51.322c-2.49-1.37-1.621-3.97-0.021-5.68
	C340.24,47.382,341.27,49.953,338.73,51.322 M386.24,46.022c3.011,0.23,5.811,1.51,7.119,4.38
	C390.51,49.842,387.93,48.433,386.24,46.022 M323.081,50.373c1.351-2.87,4.149-4.17,7.199-4.35
	C328.57,48.442,325.939,49.822,323.081,50.373 M359.391,51.092c0.42-2.88,1.01-5.73,1.869-8.51c0.311,1.53,0.631,3.07,0.94,4.61
	c0.22-1.45,0.448-2.89,0.698-4.33c1.312,0.12,2.631,0.24,3.961,0.37c-0.641,3.29-2.569,12.93-5.87,6.3
	C360.451,50.042,359.911,50.563,359.391,51.092 M349.59,42.643c2.91-0.31,4.24,1.94,5,4.36c0.11-1.5,0.24-2.99,0.399-4.48
	c1.211,2.86,1.819,5.91,1.95,9.01c-0.711-1.18-1.381-2.37-2.041-3.56c-0.119,1.58-0.238,3.17-0.369,4.76
	C350.609,50.953,350.291,46.333,349.59,42.643 M414.689,71.902c3.762-11.75,11.65-22.17,20.98-30.14
	c4.92,17.16-9.771,32.03-24.04,38.74c3.08-9.97,14.57-13.88,17.53-23.9C422.99,60.373,420.28,67.513,414.689,71.902 M280.78,41.792
	c9.471,8.01,17.431,18.61,21.131,30.52c-5.49-4.72-8.44-11.82-14.642-15.8c2.892,10.08,14.49,13.94,17.49,23.96
	c-9.199-3.91-16.529-11.35-21.92-19.62C279.121,55.203,279.75,48.143,280.78,41.792 M357.951,48.703c-0.86-2.7-2.73-5.92-0.271-8.38
	C361.951,41.692,359.51,46.112,357.951,48.703 M360.621,38.342c-2.841,3.22-6.021-0.12-3.21-3.09
	C358.49,36.272,359.561,37.302,360.621,38.342 M257.661,13.302c-0.271,67.17-0.19,134.35-0.04,201.52
	c67.08-0.039,134.159,0.061,201.239-0.05c0.109-67.14,0.189-134.29-0.04-201.42C391.77,13.282,324.72,13.382,257.661,13.302
	 M243.8,0.042c76.229-0.01,152.46-0.08,228.7,0.04c-0.102,75.96-0.102,151.919,0,227.88c-76.24,0.119-152.471,0.05-228.71,0.039
	C243.76,152.013,243.76,76.032,243.8,0.042 M21.46,124.994c-0.09,15.93-0.27,31.859,0.09,47.779c2.62-0.029,5.24-0.04,7.86-0.05
	c-0.05-4.22-0.05-8.431,0-12.65c4.31,1.45,9.74,1.15,11.77-3.62c3.49-8.459,3.97-19.488-1.75-27.13
	C35.19,123.822,27.55,124.994,21.46,124.994 M115.58,133.933c-5.05,9.58-4.93,22.05,1.02,31.22c4.27,6.37,12.05,9.19,19.46,9.39
	c-0.01-2.77-0.03-5.528-0.09-8.289c-3.89-0.711-8.13-1.489-10.93-4.551c-9.39-9.64-4.34-30.43,10.9-29.81
	c0.05-2.771,0.07-5.54,0.06-8.3C128.14,123.664,119.55,126.692,115.58,133.933 M87.42,131.712c-6.03,8.351-6.34,19.83-2.77,29.229
	c3.39,8.67,12.73,13.771,21.83,13.5c-0.02-2.72-0.04-5.438-0.04-8.149c-14.77,0.199-20.13-19.189-11.85-29.391
	c2.91-3.449,7.55-4.33,11.73-5.25c0-2.64,0.02-5.279,0.05-7.92C99.35,123.692,91.77,125.862,87.42,131.712 M58.21,124.692
	c-5.5,3.05-7.48,9.66-8.47,15.47c-1.04,9.42-1.21,19.75,3.6,28.24c2.93,5.61,11.05,7.2,15.85,3.09c4.89-4.38,6.6-11.21,7.13-17.51
	c0.48-8.279,0.38-17.21-4.06-24.51C69.49,124.841,63.26,122.132,58.21,124.692 M188.15,141.292c-0.07-5.489-0.01-10.971-0.12-16.459
	c-2.53-0.011-5.061,0-7.59,0.02c-0.12,15.99-0.21,31.99,0.04,47.99c2.51-0.012,5.01-0.021,7.53-0.012
	c0.44-6.42-0.46-12.908,0.44-19.289c2.68-4.641,7.05-8,10.78-11.761c0.42,10.28,1,20.55,0.99,30.841
	c2.61,0.119,5.24,0.199,7.86,0.311c-0.08-16.7-0.99-33.38-1.7-50.061C200.11,128.822,194.58,135.503,188.15,141.292 M151.52,141.282
	c-0.3-5.438-0.23-10.88-0.13-16.31c-2.61-0.08-5.22-0.131-7.84-0.16c-0.04,16.01-0.09,32.01,0.03,48.02
	c2.61-0.02,5.23-0.028,7.85-0.05c0.16-6.489-0.87-13.13,0.46-19.52c2.73-4.4,6.74-7.83,10.36-11.48
	c0.74,10.33,0.79,20.69,1.31,31.04c2.53,0,5.06,0.01,7.6,0.04c-0.15-16.659-0.99-33.319-1.7-49.979
	C163.24,128.782,157.75,135.393,151.52,141.282 M176.14,55.203c-0.05,15.99-1.17,31.95-1.33,47.94c2.9-0.01,5.81-0.02,8.72-0.06
	c0.439-7.82,0.61-15.64,0.939-23.45c3.68-0.07,7.35-0.05,11.03,0.07c0.78,7.8,1.67,15.58,2.45,23.37c2.92,0.04,5.85,0.06,8.78,0.06
	c-1.02-12.12-2.73-24.17-3.87-36.27c-0.31-4.49-2.53-9.34-7.09-10.84C189.43,53.993,182.66,54.922,176.14,55.203 M141.12,55.112
	c0.01,2.55,0.01,5.1-0.02,7.65c2.48,0.09,4.96,0.18,7.45,0.29c0.07,13.37-0.09,26.74,0.06,40.11c2.96-0.02,5.91-0.04,8.87-0.09
	c-0.01-13.38-0.1-26.75,0.04-40.13c2.44-0.04,4.88-0.06,7.32-0.09c0.02-2.63,0.03-5.26,0.03-7.89
	C156.95,54.822,149.03,54.663,141.12,55.112 M102.86,54.902c0.3,6.03-0.88,12.3,0.82,18.17c3.13,6.92,11.62,7.11,18.13,6.85
	c0.12,7.73,0.07,15.46,0.02,23.2c2.98,0.01,5.95,0.02,8.93,0.01c0.26-16.07,0.14-32.15,0.06-48.23c-2.98-0.02-5.94,0-8.91,0.07
	c-0.07,5.62,0.04,11.25-0.25,16.86c-3.1-0.44-7.32,0.71-9.46-2.19c-1.24-4.8-0.51-9.81-0.58-14.7
	C108.7,54.902,105.78,54.882,102.86,54.902 M21.57,54.933c-0.08,16.08-0.09,32.16,0,48.24c2.96-0.03,5.92-0.06,8.89-0.12
	c-0.03-13.39-0.09-26.78,0.03-40.16c3.65-0.02,7.3,0.01,10.95,0.14c-0.08,13.39-0.15,26.78,0.04,40.17c2.95-0.05,5.9-0.13,8.85-0.25
	c-0.06-15.96-0.09-31.91,0.03-47.87C40.77,54.652,31.16,54.853,21.57,54.933 M73.09,54.433c-6.64,2.68-9.26,10.2-10.26,16.72
	c-1.09,9.46-1.03,19.99,4.66,28.08c4.74,6.89,16.3,6.11,20.55-0.91c6.27-9.78,6.29-22.65,2.93-33.46
	C88.9,57.462,80.83,51.252,73.09,54.433 M0,0.112c76.48-0.15,152.96-0.15,229.44,0c-0.11,75.94-0.11,151.88,0,227.82
	c-76.48,0.149-152.96,0.14-229.44,0.01C0.12,151.992,0.12,76.052,0,0.112"/>
</svg>
